<svg xmlns="http://www.w3.org/2000/svg" xmlns:xlink="http://www.w3.org/1999/xlink" width="571" zoomAndPan="magnify" viewBox="0 0 428.25 427.500001" height="570" preserveAspectRatio="xMidYMid meet" version="1.0"><defs><g/><clipPath id="f6a22fecf5"><path d="M 55.242188 51.214844 L 376.078125 51.214844 L 376.078125 372.050781 L 55.242188 372.050781 Z M 55.242188 51.214844 " clip-rule="nonzero"/></clipPath><clipPath id="15851c3a59"><path d="M 215.660156 51.214844 C 127.066406 51.214844 55.242188 123.039062 55.242188 211.632812 C 55.242188 300.230469 127.066406 372.050781 215.660156 372.050781 C 304.257812 372.050781 376.078125 300.230469 376.078125 211.632812 C 376.078125 123.039062 304.257812 51.214844 215.660156 51.214844 Z M 215.660156 51.214844 " clip-rule="nonzero"/></clipPath><clipPath id="29fa31660d"><path d="M 154 136 L 276 136 L 276 303 L 154 303 Z M 154 136 " clip-rule="nonzero"/></clipPath><clipPath id="6e076d684c"><path d="M 245.359375 310.273438 L 112.496094 266.125 L 162.070312 116.921875 L 294.933594 161.070312 Z M 245.359375 310.273438 " clip-rule="nonzero"/></clipPath><clipPath id="05465a58fa"><path d="M 245.359375 310.273438 L 112.496094 266.125 L 162.070312 116.921875 L 294.933594 161.070312 Z M 245.359375 310.273438 " clip-rule="nonzero"/></clipPath><clipPath id="c332e34a95"><path d="M 245.359375 310.273438 L 112.496094 266.125 L 162.070312 116.921875 L 294.933594 161.070312 Z M 245.359375 310.273438 " clip-rule="nonzero"/></clipPath><clipPath id="69eed8297e"><path d="M 140.398438 126.828125 L 302.863281 126.828125 L 302.863281 310.257812 L 140.398438 310.257812 Z M 140.398438 126.828125 " clip-rule="nonzero"/></clipPath></defs><g clip-path="url(#f6a22fecf5)"><g clip-path="url(#15851c3a59)"><path stroke-linecap="butt" transform="matrix(0.748689, 0, 0, 0.748689, 55.243376, 51.216125)" fill="none" stroke-linejoin="miter" d="M 214.263637 -0.00171124 C 95.931758 -0.00171124 -0.00158694 95.931633 -0.00158694 214.263512 C -0.00158694 332.600609 95.931758 428.528736 214.263637 428.528736 C 332.600733 428.528736 428.52886 332.600609 428.52886 214.263512 C 428.52886 95.931633 332.600733 -0.00171124 214.263637 -0.00171124 Z M 214.263637 -0.00171124 " stroke="#000000" stroke-width="8" stroke-opacity="1" stroke-miterlimit="4"/></g></g><g fill="#000000" fill-opacity="1"><g transform="translate(204.066663, 322.631497)"><g><path d="M -36.296875 -10.90625 L -3.3125 -1 L -3.828125 0.703125 L -10.203125 3.234375 L -20.21875 36.5625 L -15.078125 40.203125 L -16.828125 42.078125 L -48.734375 32.5 L -52.015625 32.578125 L -48.21875 19.9375 L -46.390625 19.875 L -42.78125 31.59375 L -27.609375 36.15625 L -22.375 18.71875 L -31 16.125 L -37.125 21.953125 L -38.828125 21.4375 L -33.796875 4.71875 L -31.265625 4.28125 L -30.296875 13.625 L -21.625 16.234375 L -16.09375 -2.140625 L -31.03125 -6.640625 L -41.625 2.015625 L -43.109375 0.96875 L -38.984375 -12.78125 Z M -36.296875 -10.90625 "/></g></g></g><g fill="#000000" fill-opacity="1"><g transform="translate(164.836973, 310.404508)"><g><path d="M -37.140625 12.359375 C -38.191406 11.648438 -38.921875 10.742188 -39.328125 9.640625 C -39.742188 8.546875 -39.832031 7.335938 -39.59375 6.015625 L -33.765625 4.1875 L -31.953125 5.40625 C -32.378906 6.28125 -32.535156 6.992188 -32.421875 7.546875 C -32.316406 8.109375 -31.972656 8.582031 -31.390625 8.96875 C -30.703125 9.4375 -29.84375 9.75 -28.8125 9.90625 C -27.789062 10.070312 -26.441406 9.976562 -24.765625 9.625 L -15.1875 -4.5625 L -20.484375 -11.109375 L -18.265625 -12.375 L -2.59375 -1.8125 L -3.578125 -0.34375 L -10.078125 0.140625 L -19.15625 13.625 L -16.59375 18.953125 L -17.578125 20.421875 L -28.421875 18.953125 L -25.953125 12.09375 L -34.296875 13.78125 C -35.140625 13.59375 -36.101562 13.132812 -37.1875 12.40625 Z M -37.140625 12.359375 "/></g></g></g><g fill="#000000" fill-opacity="1"><g transform="translate(143.43712, 297.811543)"><g><path d="M -24.84375 -29.703125 L -17.8125 -21.34375 L -32.640625 -8.890625 C -34.253906 -7.535156 -35.175781 -6.335938 -35.40625 -5.296875 C -35.632812 -4.253906 -35.207031 -3.085938 -34.125 -1.796875 C -33.3125 -0.828125 -32.332031 -0.015625 -31.1875 0.640625 C -30.039062 1.296875 -28.421875 1.851562 -26.328125 2.3125 L -12.984375 -8.875 L -14.78125 -14.140625 L -12.28125 -14.75 L -1.984375 -2.46875 L -3.34375 -1.3125 L -9.71875 -2.625 L -22.171875 7.8125 L -21.171875 13.640625 L -22.53125 14.78125 L -32.546875 10.359375 L -28.046875 4.109375 L -38.25 2.03125 C -39.007812 1.613281 -39.804688 0.90625 -40.640625 -0.09375 C -42.316406 -2.09375 -43.035156 -4.1875 -42.796875 -6.375 C -42.566406 -8.570312 -41.410156 -10.539062 -39.328125 -12.28125 L -25.59375 -23.8125 L -27.328125 -29.09375 Z M -24.84375 -29.703125 "/></g></g></g><g fill="#000000" fill-opacity="1"><g transform="translate(120.418225, 269.464379)"><g><path d="M -8.3125 -17.296875 L -1.359375 -2.84375 L -2.96875 -2.078125 L -8.796875 -4.9375 L -23.9375 2.3125 L -24.921875 8.46875 L -26.53125 9.234375 L -34.109375 1.96875 L -35.046875 0.015625 L -10.453125 -11.796875 L -10.875 -17.328125 Z M -49 10.78125 C -49.488281 9.738281 -49.515625 8.695312 -49.078125 7.65625 C -48.640625 6.625 -47.851562 5.832031 -46.71875 5.28125 C -45.914062 4.894531 -45.046875 4.773438 -44.109375 4.921875 C -43.171875 5.066406 -42.320312 5.398438 -41.5625 5.921875 C -40.800781 6.453125 -40.253906 7.066406 -39.921875 7.765625 C -39.421875 8.796875 -39.390625 9.828125 -39.828125 10.859375 C -40.265625 11.898438 -41.050781 12.691406 -42.1875 13.234375 C -42.988281 13.617188 -43.859375 13.738281 -44.796875 13.59375 C -45.734375 13.445312 -46.582031 13.113281 -47.34375 12.59375 C -48.113281 12.070312 -48.664062 11.46875 -49 10.78125 Z M -49 10.78125 "/></g></g></g><g fill="#000000" fill-opacity="1"><g transform="translate(111.360887, 253.740208)"><g><path d="M -4.734375 -22.25 C -4.109375 -20.820312 -3.566406 -19.0625 -3.109375 -16.96875 C -2.566406 -14.488281 -2.726562 -12.125 -3.59375 -9.875 C -4.457031 -7.632812 -5.875 -5.71875 -7.84375 -4.125 C -9.8125 -2.539062 -12.125 -1.460938 -14.78125 -0.890625 C -17.664062 -0.265625 -20.554688 -0.554688 -23.453125 -1.765625 C -26.359375 -2.972656 -28.859375 -4.726562 -30.953125 -7.03125 C -33.046875 -9.34375 -34.359375 -11.738281 -34.890625 -14.21875 C -35.671875 -17.769531 -34.867188 -20.832031 -32.484375 -23.40625 C -30.109375 -25.976562 -26.617188 -27.765625 -22.015625 -28.765625 L -17.484375 -8 C -14.367188 -8.925781 -11.960938 -10.363281 -10.265625 -12.3125 C -8.578125 -14.269531 -8.019531 -16.554688 -8.59375 -19.171875 C -9.125 -21.597656 -11.765625 -24.644531 -16.515625 -28.3125 L -14.734375 -30.46875 Z M -29.46875 -11.984375 C -28.582031 -7.941406 -25.351562 -6.425781 -19.78125 -7.4375 L -22.640625 -20.5625 C -24.578125 -19.789062 -26.046875 -19.109375 -27.046875 -18.515625 C -28.046875 -17.929688 -28.789062 -17.125 -29.28125 -16.09375 C -29.78125 -15.070312 -29.84375 -13.703125 -29.46875 -11.984375 Z M -29.46875 -11.984375 "/></g></g></g><g fill="#000000" fill-opacity="1"><g transform="translate(105.00379, 221.44272)"><g/></g></g><g fill="#000000" fill-opacity="1"><g transform="translate(102.121964, 209.943801)"><g><path d="M 12.25 -47.265625 L 7.859375 -30.359375 L 6.140625 -30.8125 L 3.4375 -37.09375 L -7.953125 -35.46875 L -12.796875 -16.765625 L -3.46875 -9.5 L 2.40625 -18.421875 L 4.328125 -16.734375 L -0.046875 0.171875 L -1.765625 -0.28125 L -4.53125 -6.578125 L -36.53125 -31.65625 L -37.859375 -38.171875 L 5.484375 -44.28125 L 10.3125 -48.953125 Z M -32.34375 -32.046875 L -15.015625 -18.546875 L -10.734375 -35.109375 Z M -32.34375 -32.046875 "/></g></g></g><g fill="#000000" fill-opacity="1"><g transform="translate(112.659819, 167.755088)"><g><path d="M 22.3125 -31.640625 L 16.03125 -22.71875 L 0.203125 -33.84375 C -1.523438 -35.050781 -2.921875 -35.628906 -3.984375 -35.578125 C -5.046875 -35.523438 -6.0625 -34.8125 -7.03125 -33.4375 C -7.757812 -32.40625 -8.289062 -31.25 -8.625 -29.96875 C -8.96875 -28.6875 -9.09375 -26.984375 -9 -24.859375 L 5.234375 -14.84375 L 9.859375 -17.90625 L 11.078125 -15.671875 L 1.859375 -2.546875 L 0.40625 -3.5625 L 0.046875 -10.078125 L -13.25 -19.40625 L -18.625 -16.9375 L -20.09375 -17.96875 L -18.375 -28.78125 L -11.1875 -26.046875 L -11.8125 -36.4375 C -11.59375 -37.28125 -11.109375 -38.234375 -10.359375 -39.296875 C -8.867188 -41.429688 -7.035156 -42.664062 -4.859375 -43 C -2.679688 -43.332031 -0.476562 -42.71875 1.75 -41.15625 L 16.40625 -30.859375 L 21.09375 -33.890625 Z M 22.3125 -31.640625 "/></g></g></g><g fill="#000000" fill-opacity="1"><g transform="translate(132.343762, 138.191008)"><g><path d="M 30.4375 -22.5 L 21.65625 -16.015625 L 19.1875 -19.34375 L 17.421875 -12.734375 C 16.628906 -11.765625 15.539062 -10.765625 14.15625 -9.734375 C 12.125 -8.234375 9.90625 -7.421875 7.5 -7.296875 C 5.101562 -7.171875 2.773438 -7.679688 0.515625 -8.828125 C -1.734375 -9.972656 -3.664062 -11.632812 -5.28125 -13.8125 C -7.03125 -16.1875 -7.945312 -18.945312 -8.03125 -22.09375 C -8.125 -25.238281 -7.546875 -28.238281 -6.296875 -31.09375 C -5.046875 -33.945312 -3.40625 -36.117188 -1.375 -37.609375 C 0.3125 -38.859375 2.207031 -39.523438 4.3125 -39.609375 L -2.71875 -49.125 L -8.953125 -48.953125 L -10.015625 -50.390625 L -4.296875 -59.171875 L -2.546875 -60.46875 L 24.6875 -23.609375 L 30 -25.03125 Z M 13.609375 -15.421875 C 14.523438 -16.097656 15.3125 -16.878906 15.96875 -17.765625 C 16.625 -18.648438 17.203125 -19.851562 17.703125 -21.375 L 9.90625 -31.90625 C 8.59375 -33.300781 6.953125 -34.023438 4.984375 -34.078125 C 3.015625 -34.128906 0.953125 -33.359375 -1.203125 -31.765625 C -4.671875 -29.191406 -4.570312 -25.425781 -0.90625 -20.46875 C 1.226562 -17.570312 3.617188 -15.585938 6.265625 -14.515625 C 8.910156 -13.453125 11.359375 -13.753906 13.609375 -15.421875 Z M 13.609375 -15.421875 "/></g></g></g><g fill="#000000" fill-opacity="1"><g transform="translate(161.964417, 117.398959)"><g/></g></g><g fill="#000000" fill-opacity="1"><g transform="translate(171.872226, 110.633028)"><g><path d="M 34.09375 -39.546875 L 32.5 -38.6875 L 23.96875 -47.5 L 8.359375 -44.71875 L 11.5625 -26.796875 L 20.4375 -28.390625 L 23.28125 -36.359375 L 25.03125 -36.671875 L 27.796875 -21.171875 L 25.734375 -19.625 L 21.0625 -25.84375 L 11.96875 -24.234375 L 14.953125 -7.5 L 24.125 -6.640625 L 23.40625 -4.171875 L 3.40625 -0.609375 L 3.09375 -2.359375 L 7.640625 -7.484375 L 1.546875 -41.75 L -4.6875 -42.671875 L -3.96875 -45.140625 L 28.828125 -50.984375 L 31.78125 -52.546875 Z M 34.09375 -39.546875 "/></g></g></g><g fill="#000000" fill-opacity="1"><g transform="translate(210.900739, 104.558663)"><g><path d="M 17.96875 1.484375 L 2.015625 0.171875 L 2.15625 -1.609375 L 7.5625 -5.203125 L 10.46875 -40.40625 L 5.671875 -44.359375 L 5.828125 -46.140625 L 15.890625 -49 L 18.078125 -48.828125 L 14.328125 -3.15625 L 19.3125 -0.71875 Z M 17.96875 1.484375 "/></g></g></g><g fill="#000000" fill-opacity="1"><g transform="translate(227.901778, 104.416461)"><g><path d="M 29.9375 -22.890625 C 32.332031 -22.097656 34.28125 -20.757812 35.78125 -18.875 C 37.28125 -17 38.210938 -14.804688 38.578125 -12.296875 C 38.953125 -9.796875 38.710938 -7.253906 37.859375 -4.671875 C 36.941406 -1.867188 35.222656 0.472656 32.703125 2.359375 C 30.191406 4.253906 27.410156 5.515625 24.359375 6.140625 C 21.304688 6.773438 18.582031 6.703125 16.1875 5.921875 C 13.78125 5.128906 11.828125 3.789062 10.328125 1.90625 C 8.835938 0.03125 7.90625 -2.15625 7.53125 -4.65625 C 7.164062 -7.164062 7.40625 -9.710938 8.25 -12.296875 C 9.175781 -15.085938 10.894531 -17.429688 13.40625 -19.328125 C 15.925781 -21.222656 18.707031 -22.488281 21.75 -23.125 C 24.800781 -23.757812 27.53125 -23.679688 29.9375 -22.890625 Z M 25.28125 -19.328125 C 21.15625 -20.679688 18.128906 -18.429688 16.203125 -12.578125 C 15.066406 -9.117188 14.867188 -5.988281 15.609375 -3.1875 C 16.347656 -0.382812 18.097656 1.46875 20.859375 2.375 C 24.972656 3.726562 28 1.453125 29.9375 -4.453125 C 31.050781 -7.867188 31.242188 -10.972656 30.515625 -13.765625 C 29.785156 -16.566406 28.039062 -18.421875 25.28125 -19.328125 Z M 25.28125 -19.328125 "/></g></g></g><g fill="#000000" fill-opacity="1"><g transform="translate(260.332337, 115.864722)"><g/></g></g><g fill="#000000" fill-opacity="1"><g transform="translate(271.639019, 119.629559)"><g><path d="M 52.984375 -12.703125 C 54.421875 -11.273438 55.882812 -9.421875 57.375 -7.140625 C 58.863281 -4.867188 59.8125 -3.070312 60.21875 -1.75 L 52.390625 6.15625 L 50.84375 4.640625 C 52.5625 -2.109375 51.347656 -7.53125 47.203125 -11.625 C 45.398438 -13.40625 43.238281 -14.503906 40.71875 -14.921875 C 38.195312 -15.347656 35.59375 -15.039062 32.90625 -14 C 30.226562 -12.96875 27.75 -11.296875 25.46875 -8.984375 C 22.820312 -6.328125 20.820312 -3.484375 19.46875 -0.453125 C 18.113281 2.578125 17.628906 5.597656 18.015625 8.609375 C 18.398438 11.628906 19.847656 14.378906 22.359375 16.859375 C 24.660156 19.140625 29.703125 20.679688 37.484375 21.484375 L 36.765625 24.65625 L 23.46875 23.0625 C 22.113281 22.40625 20.90625 21.679688 19.84375 20.890625 C 18.789062 20.097656 17.71875 19.160156 16.625 18.078125 C 13.769531 15.253906 11.925781 12.054688 11.09375 8.484375 C 10.257812 4.910156 10.429688 1.300781 11.609375 -2.34375 C 12.796875 -6 14.925781 -9.378906 18 -12.484375 C 21.15625 -15.671875 24.992188 -17.703125 29.515625 -18.578125 C 34.046875 -19.460938 38.460938 -19.320312 42.765625 -18.15625 C 47.066406 -17 50.472656 -15.179688 52.984375 -12.703125 Z M 52.984375 -12.703125 "/></g></g></g><g fill="#000000" fill-opacity="1"><g transform="translate(300.767041, 149.065451)"><g><path d="M 38.59375 6.546875 C 39.1875 7.671875 39.398438 8.816406 39.234375 9.984375 C 39.078125 11.148438 38.585938 12.257812 37.765625 13.3125 L 31.78125 12.1875 L 30.75 10.25 C 31.519531 9.675781 31.988281 9.117188 32.15625 8.578125 C 32.320312 8.035156 32.242188 7.457031 31.921875 6.84375 C 31.523438 6.101562 30.910156 5.414062 30.078125 4.78125 C 29.253906 4.15625 28.023438 3.613281 26.390625 3.15625 L 11.265625 11.1875 L 12.859375 19.4375 L 10.28125 19.515625 L 1.421875 2.8125 L 3 1.96875 L 8.953125 4.59375 L 23.296875 -3.015625 L 23.546875 -8.9375 L 25.125 -9.78125 L 34 -3.34375 L 28.59375 1.546875 L 36.75 3.953125 C 37.414062 4.515625 38.050781 5.367188 38.65625 6.515625 Z M 38.59375 6.546875 "/></g></g></g><g fill="#000000" fill-opacity="1"><g transform="translate(313.483111, 170.646665)"><g><path d="M 4.984375 22.203125 C 4.335938 20.773438 3.773438 19.015625 3.296875 16.921875 C 2.722656 14.453125 2.851562 12.085938 3.6875 9.828125 C 4.53125 7.578125 5.925781 5.644531 7.875 4.03125 C 9.832031 2.425781 12.140625 1.320312 14.796875 0.71875 C 17.671875 0.0625 20.566406 0.320312 23.484375 1.5 C 26.398438 2.6875 28.914062 4.421875 31.03125 6.703125 C 33.15625 8.984375 34.5 11.351562 35.0625 13.8125 C 35.875 17.363281 35.101562 20.4375 32.75 23.03125 C 30.40625 25.632812 26.9375 27.46875 22.34375 28.53125 L 17.578125 7.8125 C 14.460938 8.757812 12.070312 10.21875 10.40625 12.1875 C 8.738281 14.164062 8.203125 16.460938 8.796875 19.078125 C 9.359375 21.503906 12.039062 24.519531 16.84375 28.125 L 15.078125 30.3125 Z M 29.609375 11.65625 C 28.679688 7.625 25.429688 6.144531 19.859375 7.21875 L 22.875 20.328125 C 24.8125 19.515625 26.269531 18.804688 27.25 18.203125 C 28.238281 17.609375 28.972656 16.796875 29.453125 15.765625 C 29.941406 14.742188 29.992188 13.375 29.609375 11.65625 Z M 29.609375 11.65625 "/></g></g></g><g fill="#000000" fill-opacity="1"><g transform="translate(321.21188, 201.403806)"><g><path d="M -1.984375 33.015625 L -1.328125 22.125 L 3.65625 22.421875 L -1.046875 15.65625 C -1.316406 14.863281 -1.414062 13.898438 -1.34375 12.765625 C -1.144531 9.472656 -0.179688 7.140625 1.546875 5.765625 C 3.273438 4.398438 5.289062 3.785156 7.59375 3.921875 C 8.96875 4.003906 10.289062 4.578125 11.5625 5.640625 C 12.84375 6.710938 14.023438 8.203125 15.109375 10.109375 L 14.328125 23.0625 L 18 23.28125 C 20.476562 23.425781 22.269531 22.867188 23.375 21.609375 C 24.488281 20.359375 25.113281 18.585938 25.25 16.296875 C 25.394531 13.929688 24.140625 10.941406 21.484375 7.328125 L 23.75 5.75 L 29.796875 14.390625 C 30.015625 15.929688 30.0625 17.773438 29.9375 19.921875 C 29.726562 23.390625 28.71875 26.03125 26.90625 27.84375 C 25.09375 29.664062 22.5625 30.476562 19.3125 30.28125 L 2.578125 29.28125 L 0.25 34.3125 Z M 3.4375 14.875 C 3.289062 17.21875 4.207031 19.785156 6.1875 22.578125 L 11.96875 22.921875 L 12.578125 12.78125 C 12.003906 12.25 11.414062 11.859375 10.8125 11.609375 C 10.207031 11.359375 9.546875 11.210938 8.828125 11.171875 C 7.410156 11.085938 6.175781 11.378906 5.125 12.046875 C 4.070312 12.722656 3.507812 13.664062 3.4375 14.875 Z M 3.4375 14.875 "/></g></g></g><g fill="#000000" fill-opacity="1"><g transform="translate(319.332738, 232.422813)"><g><path d="M -5.9375 18.609375 C -5.96875 17.671875 -5.796875 16.597656 -5.421875 15.390625 C -4.472656 12.359375 -2.984375 10.390625 -0.953125 9.484375 C 1.078125 8.578125 3.757812 8.644531 7.09375 9.6875 L 23.09375 14.6875 L 24.9375 8.765625 L 27.1875 9.46875 L 36.046875 23.671875 L 35.390625 25.765625 L 23.28125 21.96875 L 20.1875 31.84375 L 17.9375 31.140625 L 21.03125 21.265625 L 4.359375 16.046875 C 1.398438 15.117188 -0.523438 16.082031 -1.421875 18.9375 C -1.660156 19.695312 -1.722656 20.484375 -1.609375 21.296875 C -1.503906 22.117188 -1.195312 23.191406 -0.6875 24.515625 L -3.28125 25.515625 Z M -5.9375 18.609375 "/></g></g></g><g fill="#000000" fill-opacity="1"><g transform="translate(312.77495, 253.991789)"><g><path d="M -9.09375 16.890625 L -1.5 2.78125 L 0.0625 3.625 L 1.1875 10.03125 L 15.953125 17.984375 L 21.515625 15.1875 L 23.078125 16.03125 L 21.65625 26.421875 L 20.625 28.328125 L -3.390625 15.390625 L -7.625 18.984375 Z M 37.53125 33.28125 C 36.988281 34.289062 36.164062 34.921875 35.0625 35.171875 C 33.96875 35.429688 32.867188 35.265625 31.765625 34.671875 C 30.984375 34.253906 30.375 33.617188 29.9375 32.765625 C 29.5 31.921875 29.269531 31.035156 29.25 30.109375 C 29.226562 29.179688 29.398438 28.378906 29.765625 27.703125 C 30.304688 26.691406 31.125 26.0625 32.21875 25.8125 C 33.3125 25.5625 34.414062 25.738281 35.53125 26.34375 C 36.3125 26.757812 36.914062 27.382812 37.34375 28.21875 C 37.78125 29.0625 38.007812 29.945312 38.03125 30.875 C 38.0625 31.800781 37.894531 32.601562 37.53125 33.28125 Z M 37.53125 33.28125 "/></g></g></g><g fill="#000000" fill-opacity="1"><g transform="translate(305.569849, 270.545607)"><g><path d="M 8.8125 36.640625 C 7.125 38.515625 5.113281 39.753906 2.78125 40.359375 C 0.457031 40.960938 -1.921875 40.925781 -4.359375 40.25 C -6.796875 39.582031 -9.023438 38.335938 -11.046875 36.515625 C -13.234375 34.546875 -14.679688 32.023438 -15.390625 28.953125 C -16.109375 25.890625 -16.140625 22.832031 -15.484375 19.78125 C -14.828125 16.738281 -13.65625 14.28125 -11.96875 12.40625 C -10.269531 10.53125 -8.253906 9.285156 -5.921875 8.671875 C -3.597656 8.066406 -1.222656 8.101562 1.203125 8.78125 C 3.640625 9.457031 5.867188 10.707031 7.890625 12.53125 C 10.085938 14.5 11.539062 17.015625 12.25 20.078125 C 12.957031 23.148438 12.984375 26.207031 12.328125 29.25 C 11.671875 32.300781 10.5 34.765625 8.8125 36.640625 Z M 7.453125 30.9375 C 10.359375 27.71875 9.519531 24.046875 4.9375 19.921875 C 2.238281 17.484375 -0.535156 16.03125 -3.390625 15.5625 C -6.253906 15.101562 -8.660156 15.953125 -10.609375 18.109375 C -13.503906 21.328125 -12.644531 25.015625 -8.03125 29.171875 C -5.363281 31.578125 -2.601562 33.007812 0.25 33.46875 C 3.101562 33.9375 5.503906 33.09375 7.453125 30.9375 Z M 7.453125 30.9375 "/></g></g></g><g fill="#000000" fill-opacity="1"><g transform="translate(284.359288, 295.734583)"><g><path d="M -33.578125 19.296875 L -24.109375 13.84375 L -14.4375 30.609375 C -13.382812 32.429688 -12.363281 33.539062 -11.375 33.9375 C -10.394531 34.34375 -9.175781 34.125 -7.71875 33.28125 C -6.625 32.65625 -5.648438 31.832031 -4.796875 30.8125 C -3.953125 29.789062 -3.125 28.296875 -2.3125 26.328125 L -11 11.25 L -16.5 12.09375 L -16.65625 9.53125 L -2.765625 1.53125 L -1.875 3.0625 L -4.28125 9.109375 L 3.828125 23.1875 L 9.75 23.21875 L 10.640625 24.765625 L 4.53125 33.859375 L -0.84375 28.34375 L -4.671875 38.015625 C -5.210938 38.691406 -6.046875 39.351562 -7.171875 40 C -9.429688 41.300781 -11.617188 41.644531 -13.734375 41.03125 C -15.847656 40.425781 -17.582031 38.945312 -18.9375 36.59375 L -27.890625 21.0625 L -33.421875 21.84375 Z M -33.578125 19.296875 "/></g></g></g><g fill="#000000" fill-opacity="1"><g transform="translate(253.283294, 313.784619)"><g><path d="M -19.625 11.0625 C -19.375 12.101562 -18.566406 12.925781 -17.203125 13.53125 C -15.835938 14.132812 -13.820312 14.757812 -11.15625 15.40625 C -8.976562 15.957031 -7.203125 16.460938 -5.828125 16.921875 C -4.453125 17.378906 -3.226562 18 -2.15625 18.78125 C -1.082031 19.570312 -0.410156 20.546875 -0.140625 21.703125 C 0.179688 23.046875 -0.03125 24.613281 -0.78125 26.40625 C -1.53125 28.195312 -2.597656 29.8125 -3.984375 31.25 C -5.378906 32.6875 -6.785156 33.578125 -8.203125 33.921875 C -9.921875 34.328125 -11.957031 34.582031 -14.3125 34.6875 C -16.664062 34.789062 -18.410156 34.703125 -19.546875 34.421875 L -21.59375 25.828125 L -19.46875 25.328125 C -17.71875 27.347656 -15.910156 28.8125 -14.046875 29.71875 C -12.179688 30.632812 -10.429688 30.894531 -8.796875 30.5 C -7.640625 30.226562 -6.78125 29.695312 -6.21875 28.90625 C -5.65625 28.125 -5.484375 27.269531 -5.703125 26.34375 C -5.984375 25.1875 -6.832031 24.296875 -8.25 23.671875 C -9.675781 23.054688 -11.765625 22.425781 -14.515625 21.78125 C -16.648438 21.25 -18.378906 20.765625 -19.703125 20.328125 C -21.023438 19.898438 -22.203125 19.304688 -23.234375 18.546875 C -24.265625 17.796875 -24.914062 16.847656 -25.1875 15.703125 C -25.519531 14.316406 -25.28125 12.726562 -24.46875 10.9375 C -23.65625 9.144531 -22.523438 7.523438 -21.078125 6.078125 C -19.628906 4.640625 -18.195312 3.75 -16.78125 3.40625 C -14.957031 2.96875 -12.738281 2.664062 -10.125 2.5 C -7.507812 2.332031 -5.59375 2.375 -4.375 2.625 L -2.328125 11.234375 L -4.46875 11.75 C -6.320312 9.75 -8.289062 8.320312 -10.375 7.46875 C -12.46875 6.613281 -14.429688 6.40625 -16.265625 6.84375 C -17.484375 7.132812 -18.398438 7.6875 -19.015625 8.5 C -19.628906 9.320312 -19.832031 10.175781 -19.625 11.0625 Z M -19.625 11.0625 "/></g></g></g><g clip-path="url(#29fa31660d)"><g clip-path="url(#6e076d684c)"><g clip-path="url(#05465a58fa)"><g clip-path="url(#c332e34a95)"><path fill="#100f0d" d="M 232.667969 299.855469 C 229.796875 301.652344 227.070312 304.21875 224.84375 300.21875 C 222.621094 296.21875 222.351562 289.90625 219.058594 285.550781 C 215.765625 281.199219 211.496094 276.222656 214.511719 265.367188 C 217.527344 254.515625 223.566406 250.59375 221.957031 237.609375 C 220.351562 224.628906 218.117188 209.066406 208.957031 201.875 C 199.796875 194.679688 185.394531 184.558594 176.148438 178.523438 C 166.898438 172.484375 155.597656 151.242188 154.792969 146.53125 C 153.992188 141.816406 157.808594 137.457031 160.121094 137.628906 C 162.429688 137.804688 163.40625 136.648438 165.628906 137.089844 C 167.851562 137.53125 172.929688 151.667969 177.195312 153.085938 C 181.460938 154.5 196.484375 155.640625 209.460938 159.359375 C 222.441406 163.082031 249.289062 174.078125 249.289062 174.078125 C 249.289062 174.078125 248.042969 168.019531 248.570312 164.644531 C 249.101562 161.269531 252.300781 160.554688 252.300781 160.554688 C 252.300781 160.554688 253.363281 156.460938 254.699219 156.902344 C 256.03125 157.347656 256.207031 155.035156 258.605469 154.941406 C 261.007812 154.851562 262.339844 156.183594 262.339844 156.183594 C 262.339844 156.183594 262.960938 153.425781 265.628906 154.3125 C 268.296875 155.199219 273.980469 154.125 274.964844 161.859375 C 275.949219 169.597656 275.6875 178.402344 273.113281 182.585938 C 270.539062 186.769531 267.585938 188.453125 269.734375 193.613281 C 271.878906 198.773438 266.910156 210.164062 266.910156 210.164062 C 266.910156 210.164062 267.363281 216.816406 266.214844 227.410156 C 265.066406 238.003906 265.78125 248.320312 257.4375 259.179688 C 249.085938 270.039062 242.335938 272.539062 240.121094 280.101562 C 237.902344 287.664062 239.773438 295.398438 232.667969 299.855469 " fill-opacity="1" fill-rule="nonzero"/></g></g></g></g><g clip-path="url(#69eed8297e)"><path fill="#000000" d="M 202.71875 127.816406 C 202.773438 127.867188 202.839844 127.902344 202.910156 127.925781 C 202.839844 127.90625 202.773438 127.871094 202.714844 127.816406 Z M 209.09375 140.738281 C 209.078125 140.742188 209.066406 140.746094 209.050781 140.753906 C 208.90625 140.808594 208.789062 140.925781 208.734375 141.070312 C 208.792969 140.875 208.914062 140.765625 209.089844 140.738281 Z M 216.605469 142.613281 C 216.625 142.734375 216.683594 142.84375 216.773438 142.921875 C 216.671875 142.851562 216.613281 142.746094 216.601562 142.613281 Z M 258.988281 149.011719 C 258.933594 149.0625 258.878906 149.09375 258.820312 149.109375 C 258.832031 149.105469 258.84375 149.097656 258.855469 149.09375 C 258.902344 149.070312 258.945312 149.042969 258.984375 149.011719 Z M 155.460938 151.058594 C 155.496094 151.207031 155.59375 151.335938 155.734375 151.410156 C 155.550781 151.3125 155.460938 151.195312 155.457031 151.058594 Z M 264.039062 164.46875 C 264.109375 164.515625 264.1875 164.546875 264.269531 164.558594 C 264.171875 164.546875 264.09375 164.515625 264.035156 164.46875 Z M 268.660156 176.703125 C 268.761719 176.703125 268.84375 176.730469 268.910156 176.785156 C 268.890625 176.777344 268.871094 176.769531 268.851562 176.757812 C 268.78125 176.726562 268.703125 176.707031 268.621094 176.707031 C 268.582031 176.707031 268.542969 176.710938 268.5 176.722656 C 268.558594 176.707031 268.613281 176.703125 268.660156 176.703125 Z M 275.03125 229.738281 C 275.234375 229.855469 275.316406 230.007812 275.28125 230.195312 L 275.277344 230.195312 C 275.277344 230.015625 275.1875 229.839844 275.027344 229.738281 Z M 210.648438 240.402344 C 210.6875 240.4375 210.738281 240.46875 210.789062 240.492188 C 210.730469 240.464844 210.683594 240.4375 210.644531 240.402344 Z M 285.890625 257.445312 C 285.933594 257.507812 285.976562 257.589844 286.027344 257.691406 C 286.074219 257.804688 286.089844 257.894531 286.078125 257.960938 C 286.03125 258.203125 285.953125 258.339844 285.839844 258.378906 C 285.804688 258.308594 285.78125 258.171875 285.777344 257.964844 C 285.785156 257.765625 285.808594 257.625 285.84375 257.546875 L 285.847656 257.535156 C 285.859375 257.503906 285.875 257.472656 285.886719 257.445312 Z M 285.738281 256.203125 C 285.609375 256.203125 285.476562 256.253906 285.371094 256.351562 C 285.144531 256.5625 284.96875 256.820312 284.84375 257.121094 C 284.753906 257.332031 284.703125 257.613281 284.695312 257.960938 L 284.695312 257.984375 C 284.703125 258.539062 284.847656 258.949219 285.128906 259.210938 C 285.21875 259.292969 285.320312 259.359375 285.433594 259.410156 C 285.46875 259.425781 285.507812 259.4375 285.542969 259.449219 C 285.582031 259.460938 285.621094 259.46875 285.65625 259.472656 C 285.714844 259.476562 285.769531 259.480469 285.824219 259.480469 C 286.542969 259.480469 286.984375 259.039062 287.144531 258.160156 C 287.199219 257.867188 287.152344 257.558594 287.011719 257.230469 L 287 257.207031 C 286.808594 256.828125 286.605469 256.5625 286.390625 256.414062 C 286.355469 256.390625 286.320312 256.371094 286.285156 256.351562 C 286.207031 256.308594 286.121094 256.289062 286.035156 256.289062 C 286.03125 256.289062 286.03125 256.289062 286.027344 256.289062 C 285.941406 256.234375 285.839844 256.203125 285.738281 256.203125 Z M 263.671875 273.078125 C 263.640625 273.128906 263.597656 273.179688 263.535156 273.222656 C 263.589844 273.183594 263.636719 273.132812 263.671875 273.078125 Z M 296.625 251.191406 C 297.710938 253.703125 298.34375 256.320312 298.53125 259.042969 C 298.398438 259.007812 298.226562 258.941406 298.015625 258.839844 C 297.945312 258.808594 297.863281 258.789062 297.785156 258.789062 C 297.730469 258.789062 297.671875 258.796875 297.617188 258.816406 C 297.355469 258.902344 297.164062 259.066406 297.039062 259.316406 C 297.003906 259.382812 296.972656 259.457031 296.953125 259.535156 L 296.949219 259.535156 C 296.941406 259.554688 296.933594 259.574219 296.929688 259.597656 C 296.828125 259.910156 296.757812 260.835938 296.722656 262.367188 C 296.257812 263.5 295.988281 264.871094 295.902344 266.480469 C 294.867188 268.117188 294.199219 269.410156 293.894531 270.367188 L 293.890625 270.367188 C 293.699219 270.769531 293.546875 272.015625 293.433594 274.101562 L 293.429688 274.101562 C 292.960938 275.59375 292.667969 276.789062 292.542969 277.691406 L 292.539062 277.691406 C 291.730469 278.691406 291.105469 280.28125 290.660156 282.460938 L 290.65625 282.460938 C 290.609375 282.507812 290.519531 282.570312 290.386719 282.644531 C 289.238281 282.808594 288.226562 283.230469 287.34375 283.914062 C 285.835938 283.355469 284.691406 282.667969 283.917969 281.851562 L 283.914062 281.851562 C 283.828125 281.710938 283.765625 281.542969 283.722656 281.34375 C 283.25 278.648438 282.941406 277.027344 282.800781 276.488281 L 282.796875 276.488281 C 282.726562 276.074219 282.734375 275.691406 282.824219 275.339844 L 282.820312 275.339844 C 284.097656 271.984375 284.742188 269.894531 284.753906 269.074219 C 284.835938 268.445312 284.875 267.492188 284.875 266.210938 L 284.875 266.191406 C 284.84375 265.328125 284.761719 264.285156 284.625 263.066406 C 284.613281 262.882812 284.628906 262.695312 284.675781 262.511719 C 284.6875 262.46875 284.691406 262.421875 284.691406 262.378906 C 284.890625 262.054688 285.789062 261.433594 287.386719 260.511719 L 287.410156 260.5 C 287.757812 260.277344 288.242188 260.164062 288.855469 260.164062 C 289.164062 260.164062 289.503906 260.195312 289.875 260.25 C 289.902344 260.253906 289.929688 260.253906 289.957031 260.253906 C 289.976562 260.253906 290 260.253906 290.023438 260.25 C 290.308594 260.214844 290.589844 260.066406 290.863281 259.804688 C 290.882812 259.785156 290.902344 259.765625 290.921875 259.742188 C 292.085938 258.230469 292.875 257.28125 293.277344 256.898438 C 293.308594 256.871094 293.335938 256.839844 293.359375 256.808594 C 293.503906 256.589844 293.597656 256.382812 293.644531 256.175781 C 293.652344 256.140625 293.660156 256.101562 293.660156 256.0625 C 293.667969 255.578125 293.695312 255.265625 293.742188 255.121094 L 293.738281 255.121094 L 295.378906 253.371094 C 295.671875 253.0625 296.007812 252.417969 296.390625 251.4375 C 296.429688 251.375 296.507812 251.292969 296.621094 251.191406 Z M 296.894531 249.914062 C 296.816406 249.914062 296.742188 249.929688 296.667969 249.964844 C 296.625 249.984375 296.585938 250.007812 296.550781 250.039062 C 296.535156 250.039062 296.523438 250.035156 296.511719 250.035156 C 296.394531 250.035156 296.28125 250.074219 296.179688 250.148438 C 295.8125 250.433594 295.566406 250.6875 295.4375 250.914062 C 295.425781 250.9375 295.414062 250.960938 295.402344 250.988281 C 295.058594 251.867188 294.789062 252.414062 294.589844 252.625 L 292.9375 254.386719 L 292.933594 254.386719 C 292.867188 254.457031 292.808594 254.542969 292.765625 254.644531 C 292.652344 254.894531 292.589844 255.339844 292.574219 255.988281 C 292.554688 256.039062 292.523438 256.097656 292.484375 256.160156 L 292.480469 256.160156 C 292.023438 256.605469 291.222656 257.570312 290.082031 259.054688 L 290.078125 259.054688 C 290.019531 259.105469 289.972656 259.140625 289.933594 259.160156 C 289.554688 259.105469 289.199219 259.082031 288.867188 259.082031 C 288.03125 259.082031 287.351562 259.25 286.828125 259.582031 L 286.824219 259.582031 C 284.980469 260.644531 283.933594 261.433594 283.691406 261.949219 C 283.621094 262.089844 283.59375 262.226562 283.601562 262.363281 L 283.597656 262.363281 C 283.542969 262.621094 283.523438 262.882812 283.542969 263.144531 L 283.546875 263.167969 C 283.679688 264.367188 283.761719 265.390625 283.792969 266.230469 C 283.789062 267.464844 283.753906 268.371094 283.675781 268.945312 L 283.671875 269.019531 C 283.671875 269.023438 283.671875 269.03125 283.671875 269.039062 C 283.691406 269.65625 283.070312 271.628906 281.804688 274.957031 L 281.789062 275.007812 C 281.644531 275.523438 281.625 276.082031 281.730469 276.671875 L 281.742188 276.726562 C 281.863281 277.175781 282.167969 278.777344 282.65625 281.535156 L 282.65625 281.542969 C 282.726562 281.902344 282.851562 282.210938 283.027344 282.480469 C 283.042969 282.503906 283.0625 282.527344 283.082031 282.550781 C 284.027344 283.566406 285.421875 284.398438 287.273438 285.039062 C 287.332031 285.0625 287.390625 285.070312 287.449219 285.070312 C 287.578125 285.070312 287.703125 285.027344 287.800781 284.941406 C 288.601562 284.257812 289.542969 283.847656 290.628906 283.710938 C 290.699219 283.703125 290.761719 283.679688 290.820312 283.648438 C 291.175781 283.453125 291.425781 283.257812 291.566406 283.058594 C 291.613281 282.988281 291.652344 282.917969 291.679688 282.84375 L 291.679688 282.839844 C 291.691406 282.816406 291.699219 282.789062 291.703125 282.757812 C 292.132812 280.625 292.722656 279.128906 293.472656 278.269531 C 293.542969 278.1875 293.589844 278.085938 293.601562 277.976562 C 293.703125 277.113281 294 275.90625 294.488281 274.351562 C 294.503906 274.308594 294.511719 274.261719 294.511719 274.21875 C 294.617188 272.265625 294.734375 271.140625 294.867188 270.847656 L 294.863281 270.847656 C 294.886719 270.808594 294.90625 270.769531 294.917969 270.726562 C 295.199219 269.835938 295.855469 268.570312 296.898438 266.941406 C 296.949219 266.859375 296.976562 266.765625 296.980469 266.671875 C 297.050781 265.082031 297.3125 263.75 297.765625 262.683594 C 297.792969 262.621094 297.804688 262.554688 297.808594 262.484375 C 297.835938 261.113281 297.882812 260.28125 297.945312 259.992188 L 297.949219 259.992188 C 298.191406 260.082031 298.402344 260.136719 298.585938 260.152344 C 298.625 260.15625 298.667969 260.15625 298.707031 260.15625 C 298.757812 260.15625 298.804688 260.15625 298.851562 260.148438 C 299.296875 260.09375 299.550781 259.84375 299.621094 259.402344 C 299.625 259.378906 299.628906 259.351562 299.628906 259.328125 C 299.632812 259.300781 299.632812 259.273438 299.628906 259.25 C 299.449219 256.113281 298.703125 253.105469 297.386719 250.230469 C 297.296875 250.03125 297.097656 249.914062 296.894531 249.914062 Z M 227.914062 309.207031 C 227.863281 309.242188 227.816406 309.285156 227.777344 309.335938 C 227.820312 309.277344 227.867188 309.234375 227.914062 309.207031 Z M 202.589844 126.804688 C 202.3125 126.804688 202.074219 127.015625 202.050781 127.300781 C 202.023438 127.597656 202.242188 127.863281 202.539062 127.890625 C 202.742188 127.910156 202.875 127.925781 202.929688 127.933594 C 202.949219 127.9375 202.972656 127.945312 202.992188 127.945312 C 203.027344 127.953125 203.089844 127.976562 203.183594 128.015625 L 203.179688 128.015625 C 203.480469 128.15625 203.777344 128.339844 204.074219 128.570312 L 204.078125 128.578125 L 204.082031 128.578125 C 204.171875 128.648438 204.28125 128.683594 204.390625 128.6875 L 204.386719 128.6875 C 204.351562 128.789062 204.34375 128.90625 204.378906 129.023438 C 204.417969 129.160156 204.4375 129.257812 204.4375 129.316406 L 204.433594 129.316406 L 204.054688 130.316406 C 204.046875 130.339844 204.039062 130.367188 204.03125 130.390625 C 203.984375 130.617188 203.964844 130.804688 203.980469 130.957031 C 203.984375 130.996094 203.988281 131.035156 203.996094 131.074219 C 204.003906 131.128906 204.015625 131.183594 204.035156 131.238281 C 204.078125 131.375 204.15625 131.519531 204.261719 131.664062 C 204.28125 131.6875 204.296875 131.707031 204.316406 131.726562 L 204.972656 132.382812 L 204.96875 132.382812 C 204.992188 132.425781 205.019531 132.496094 205.054688 132.597656 C 205.152344 132.949219 205.148438 133.523438 205.042969 134.328125 C 204.992188 134.597656 204.90625 134.804688 204.785156 134.941406 L 204.757812 134.980469 C 204.566406 135.242188 204.0625 135.660156 203.242188 136.226562 C 203.210938 136.25 203.179688 136.277344 203.152344 136.308594 C 202.9375 136.546875 202.808594 136.785156 202.765625 137.03125 C 202.75 137.132812 202.746094 137.230469 202.757812 137.328125 L 202.769531 137.386719 C 202.839844 137.707031 203.039062 138.015625 203.363281 138.320312 C 203.375 138.335938 203.386719 138.347656 203.398438 138.363281 C 203.597656 138.5625 204.511719 139.25 206.148438 140.417969 C 206.1875 140.453125 206.210938 140.492188 206.226562 140.53125 C 206.296875 140.742188 206.484375 140.882812 206.691406 140.898438 L 206.6875 140.898438 C 207.019531 141.238281 207.417969 141.472656 207.882812 141.59375 L 207.914062 141.601562 C 208.582031 141.738281 209 141.8125 209.164062 141.820312 C 209.179688 141.820312 209.195312 141.820312 209.210938 141.820312 C 209.359375 141.820312 209.476562 141.789062 209.570312 141.722656 L 209.566406 141.722656 C 210.230469 141.492188 210.839844 141.375 211.398438 141.375 C 211.484375 141.375 211.566406 141.378906 211.652344 141.382812 L 211.648438 141.382812 L 215.359375 142.742188 C 215.398438 142.753906 215.4375 142.765625 215.476562 142.769531 C 216.1875 142.859375 216.644531 142.925781 216.839844 142.972656 L 216.835938 142.972656 C 216.855469 142.984375 216.875 142.996094 216.898438 143.007812 C 217.0625 143.089844 217.167969 143.183594 217.21875 143.292969 C 217.117188 144.75 217.261719 145.6875 217.652344 146.105469 C 217.789062 146.25 217.945312 146.34375 218.125 146.386719 L 218.121094 146.386719 C 218.363281 146.523438 218.664062 146.625 219.03125 146.695312 L 219.082031 146.703125 C 220.230469 146.800781 220.898438 146.882812 221.082031 146.949219 C 223.09375 148 224.433594 148.535156 225.089844 148.554688 C 225.199219 148.574219 225.308594 148.585938 225.414062 148.585938 C 226.207031 148.585938 226.90625 148.050781 227.519531 146.980469 L 227.515625 146.980469 C 227.550781 146.941406 227.578125 146.894531 227.605469 146.847656 C 227.855469 146.398438 228.128906 144.78125 228.421875 141.992188 L 228.417969 141.992188 C 228.683594 141.699219 229.234375 141.496094 230.074219 141.382812 C 230.253906 141.367188 230.433594 141.359375 230.613281 141.359375 C 231.445312 141.359375 232.273438 141.542969 233.09375 141.90625 L 233.089844 141.90625 C 235.378906 143.195312 237.035156 143.996094 238.066406 144.308594 L 238.0625 144.308594 C 238.820312 145.179688 239.511719 145.617188 240.136719 145.617188 C 240.164062 145.617188 240.195312 145.617188 240.222656 145.617188 C 240.761719 145.582031 241.347656 145.566406 241.976562 145.566406 C 244.109375 145.566406 246.757812 145.75 249.914062 146.113281 C 249.933594 146.117188 249.957031 146.117188 249.976562 146.117188 C 249.980469 146.117188 249.980469 146.117188 249.984375 146.117188 C 250.324219 146.113281 250.601562 146.082031 250.8125 146.023438 C 250.847656 146.015625 250.875 146.003906 250.90625 145.988281 L 251.746094 145.582031 C 251.777344 145.574219 251.832031 145.570312 251.90625 145.570312 C 251.9375 145.570312 251.972656 145.570312 252.007812 145.570312 L 255.890625 146.089844 L 255.886719 146.089844 L 255.910156 146.089844 C 256.480469 146.144531 257.234375 146.179688 258.171875 146.1875 L 258.21875 146.1875 C 259.605469 146.089844 260.609375 145.949219 261.238281 145.765625 C 261.675781 146.796875 262.582031 148.386719 263.960938 150.539062 L 263.964844 150.539062 C 264.035156 150.855469 263.753906 151.730469 263.117188 153.171875 L 263.113281 153.183594 C 262.992188 153.472656 262.863281 153.679688 262.726562 153.800781 C 262.652344 153.871094 262.558594 153.90625 262.457031 153.90625 C 262.152344 153.90625 261.738281 153.613281 261.210938 153.023438 L 261.195312 153.011719 C 260.734375 152.53125 260.382812 152.035156 260.140625 151.523438 C 259.839844 149.757812 259.558594 148.695312 259.296875 148.328125 C 259.25 148.261719 259.199219 148.207031 259.144531 148.164062 C 258.992188 148.035156 258.847656 147.96875 258.703125 147.96875 C 258.5625 147.96875 258.429688 148.03125 258.300781 148.15625 L 258.296875 148.15625 C 257.003906 148.8125 256.574219 150.042969 257.003906 151.847656 C 257.019531 151.914062 257.050781 151.976562 257.089844 152.035156 L 259.800781 155.917969 L 261.085938 160.363281 C 261.105469 160.4375 261.144531 160.503906 261.195312 160.5625 C 262.410156 161.988281 263.300781 163.230469 263.871094 164.28125 C 263.898438 164.332031 263.929688 164.375 263.96875 164.414062 C 264.078125 164.726562 264.199219 165.644531 264.332031 167.167969 C 264.34375 167.292969 264.398438 167.410156 264.488281 167.5 C 266.1875 169.238281 267.082031 170.289062 267.179688 170.65625 C 267.183594 170.714844 267.199219 170.773438 267.222656 170.824219 C 267.359375 171.136719 267.453125 171.472656 267.496094 171.835938 C 267.605469 174.578125 267.746094 176.304688 267.914062 177.027344 C 267.945312 177.171875 267.984375 177.289062 268.027344 177.382812 C 268.140625 177.632812 268.304688 177.773438 268.507812 177.796875 C 270.96875 178.957031 272.246094 179.769531 272.335938 180.230469 C 272.355469 180.34375 272.410156 180.445312 272.488281 180.523438 C 272.640625 180.878906 272.667969 182.105469 272.566406 184.203125 C 272.566406 184.246094 272.566406 184.285156 272.574219 184.328125 C 272.730469 185.148438 272.984375 185.742188 273.335938 186.117188 L 273.351562 186.136719 C 276.988281 189.683594 279.425781 191.652344 280.667969 192.039062 C 282.589844 196.132812 284.054688 198.238281 285.054688 198.359375 C 285.097656 198.363281 285.140625 198.367188 285.183594 198.367188 C 285.222656 198.367188 285.257812 198.367188 285.296875 198.359375 C 292.773438 197.609375 297.894531 196.445312 300.667969 194.867188 C 300.667969 194.867188 300.671875 194.867188 300.675781 194.867188 C 300.707031 194.863281 300.738281 194.863281 300.765625 194.863281 C 301.101562 194.863281 301.296875 195.097656 301.347656 195.5625 L 301.351562 195.59375 C 301.613281 197.105469 301.496094 198.304688 301 199.195312 L 300.996094 199.195312 C 298.691406 202.527344 295.632812 207.894531 291.816406 215.304688 C 290.433594 217.21875 288.050781 218.640625 284.671875 219.5625 C 284.585938 219.585938 284.507812 219.628906 284.441406 219.691406 C 281.046875 222.886719 278.730469 225.300781 277.488281 226.933594 L 277.484375 226.933594 C 275.589844 228.484375 274.527344 229.433594 274.300781 229.789062 C 274.28125 229.816406 274.265625 229.847656 274.25 229.875 C 274.199219 229.972656 274.171875 230.066406 274.160156 230.152344 L 274.15625 230.152344 C 272.777344 233.117188 272.101562 234.902344 272.128906 235.503906 C 272.128906 235.515625 272.128906 235.527344 272.128906 235.535156 L 272.125 235.535156 C 272.113281 235.59375 272.105469 235.65625 272.101562 235.722656 C 272.085938 236.207031 272.5 237.273438 273.347656 238.914062 C 273.042969 241.128906 273.023438 242.5 273.28125 243.023438 L 273.277344 243.023438 C 273.410156 243.566406 274.046875 244.667969 275.1875 246.328125 L 275.183594 246.328125 C 275.300781 246.554688 275.386719 246.796875 275.441406 247.0625 L 275.4375 247.0625 L 275.359375 252.558594 C 275.359375 252.585938 275.359375 252.613281 275.363281 252.640625 L 276.179688 258.621094 L 274.636719 259.671875 C 274.566406 259.71875 274.507812 259.78125 274.46875 259.851562 C 273.570312 261.425781 272.976562 262.332031 272.679688 262.574219 L 272.675781 262.574219 C 270.691406 262.722656 269.261719 263.339844 268.390625 264.421875 C 266.761719 265.621094 265.40625 267.117188 264.328125 268.90625 L 264.320312 268.917969 C 263.273438 270.773438 262.722656 272.027344 262.671875 272.675781 L 262.667969 272.675781 C 262.652344 272.722656 262.644531 272.777344 262.640625 272.835938 C 262.597656 273.308594 262.933594 275.085938 263.640625 278.171875 L 263.636719 278.171875 C 263.699219 279.152344 263.597656 280.003906 263.335938 280.722656 C 263.175781 281.164062 262.988281 281.492188 262.769531 281.710938 L 262.765625 281.710938 C 260.898438 282.195312 259.695312 282.984375 259.15625 284.074219 L 259.152344 284.074219 C 258.761719 284.757812 258.492188 285.410156 258.347656 286.039062 L 258.339844 286.074219 C 257.675781 290.035156 257.238281 292.238281 257.03125 292.6875 L 257.027344 292.6875 C 256.976562 292.746094 256.9375 292.816406 256.917969 292.890625 C 256.707031 293.636719 255.957031 294.226562 254.671875 294.667969 C 254.578125 294.699219 254.5 294.753906 254.4375 294.828125 C 254.136719 295.171875 253.953125 295.585938 253.875 296.074219 L 253.871094 296.074219 C 253.304688 297.152344 252.207031 298.953125 250.578125 301.472656 C 248.609375 302.878906 247.09375 304.3125 246.039062 305.769531 C 245.613281 306.136719 245.15625 306.433594 244.671875 306.65625 L 244.648438 306.667969 C 243.265625 307.382812 241.253906 307.773438 238.625 307.839844 C 236.519531 307.464844 235.03125 307.273438 234.15625 307.273438 C 233.824219 307.273438 233.578125 307.300781 233.421875 307.355469 L 233.425781 307.355469 C 231.605469 307.699219 229.804688 308.296875 228.019531 309.148438 C 227.671875 309.085938 226.804688 308.695312 225.410156 307.96875 C 225.355469 307.941406 225.292969 307.921875 225.230469 307.914062 C 224.695312 307.84375 224.128906 306.839844 223.53125 304.890625 C 223.53125 304.882812 223.527344 304.871094 223.523438 304.863281 L 223.519531 304.863281 C 223.632812 304.554688 224.078125 303.90625 224.859375 302.914062 C 224.890625 302.875 224.914062 302.832031 224.933594 302.785156 C 225.109375 302.367188 225.109375 301.953125 224.941406 301.535156 L 224.925781 301.5 C 224.398438 300.433594 223.382812 299.015625 221.875 297.25 L 221.871094 297.25 C 221.417969 295.253906 221.019531 294.066406 220.683594 293.683594 L 220.675781 293.675781 C 219.417969 292.300781 218.277344 290.488281 217.246094 288.230469 C 217.226562 288.1875 217.199219 288.148438 217.167969 288.109375 L 217.171875 288.109375 C 216.914062 287.757812 216.726562 286.300781 216.597656 283.730469 C 216.59375 283.652344 216.574219 283.574219 216.539062 283.507812 C 215.972656 282.414062 215.679688 281.742188 215.660156 281.496094 L 215.65625 281.496094 C 215.660156 281.464844 215.660156 281.429688 215.65625 281.398438 L 215.230469 277.890625 C 215.222656 277.820312 215.199219 277.75 215.164062 277.6875 C 214.40625 276.355469 213.894531 275.234375 213.628906 274.328125 C 213.667969 274.21875 213.671875 274.09375 213.636719 273.972656 C 213.566406 273.753906 213.496094 273.542969 213.429688 273.339844 C 213.417969 273.242188 213.414062 273.144531 213.414062 273.050781 C 213.414062 272.871094 213.324219 272.710938 213.191406 272.613281 L 213.1875 272.613281 C 212.824219 271.539062 212.546875 270.839844 212.363281 270.519531 C 212.261719 270.324219 212.136719 270.121094 211.988281 269.910156 L 211.957031 269.871094 C 211.503906 269.339844 211.023438 268.707031 210.515625 267.96875 C 210.226562 267.550781 210.042969 267.25 209.957031 267.0625 L 209.953125 267.054688 C 209.898438 266.9375 209.839844 266.746094 209.769531 266.46875 L 209.375 264.457031 C 209.359375 264.382812 209.332031 264.316406 209.292969 264.257812 L 209.289062 264.257812 C 209.3125 263.542969 209.410156 262.335938 209.578125 260.640625 C 209.730469 259.523438 209.921875 258.585938 210.148438 257.832031 L 210.15625 257.8125 C 210.53125 256.390625 210.914062 255.289062 211.308594 254.507812 L 211.304688 254.507812 L 213.601562 251.046875 C 213.613281 251.027344 213.625 251.007812 213.636719 250.984375 C 213.828125 250.59375 213.878906 250.050781 213.785156 249.363281 L 213.785156 249.347656 C 213.664062 248.628906 213.507812 248.070312 213.316406 247.671875 L 213.3125 247.671875 C 213.148438 247.269531 212.675781 246.597656 211.890625 245.652344 C 211.78125 245.476562 211.691406 245.246094 211.621094 244.957031 C 211.507812 244.410156 211.445312 243.90625 211.425781 243.441406 C 211.65625 241.539062 211.714844 240.378906 211.601562 239.964844 C 211.578125 239.878906 211.542969 239.804688 211.503906 239.738281 C 211.339844 239.203125 210.777344 238.265625 209.816406 236.925781 C 209.75 236.769531 209.683594 236.308594 209.621094 235.546875 C 209.609375 235.4375 209.570312 235.335938 209.5 235.25 L 208.910156 234.523438 L 208.75 233.632812 C 208.738281 233.585938 208.726562 233.542969 208.707031 233.5 L 208.691406 233.464844 C 208.636719 233.347656 208.539062 233.253906 208.417969 233.199219 C 205.429688 231.867188 203.375 229.800781 202.253906 227.003906 C 202.152344 226.75 202.113281 226.453125 202.132812 226.109375 C 202.757812 222.984375 203.007812 220.570312 202.875 218.871094 C 202.875 218.839844 202.867188 218.808594 202.859375 218.777344 C 203.085938 215.371094 202.476562 213.261719 201.03125 212.453125 C 200.558594 212.0625 199.980469 211.828125 199.300781 211.757812 C 199.28125 211.757812 199.261719 211.753906 199.246094 211.753906 C 199.222656 211.753906 199.199219 211.757812 199.175781 211.757812 C 197.175781 212.015625 195.761719 212.144531 194.941406 212.144531 C 194.613281 212.144531 194.378906 212.125 194.242188 212.085938 L 194.238281 212.085938 C 194.179688 212.015625 194.109375 211.960938 194.023438 211.929688 C 193.78125 211.832031 193.5625 211.636719 193.363281 211.335938 C 192.546875 209.179688 191.933594 207.929688 191.511719 207.582031 C 191.503906 207.574219 191.492188 207.566406 191.480469 207.558594 L 191.476562 207.558594 C 191.433594 207.5 191.375 207.449219 191.308594 207.398438 C 190.921875 207.117188 189.585938 206.722656 187.304688 206.214844 L 187.300781 206.214844 C 186.785156 206.109375 186.332031 206.054688 185.933594 206.054688 C 185.480469 206.054688 185.101562 206.125 184.800781 206.261719 C 184.664062 206.324219 184.558594 206.441406 184.511719 206.582031 C 183.9375 208.261719 181.125 209.675781 176.082031 210.824219 L 176.066406 210.828125 C 175.230469 211.042969 174.273438 211.148438 173.1875 211.148438 C 171.695312 211.148438 169.964844 210.945312 168 210.539062 C 167.960938 210.53125 167.925781 210.527344 167.890625 210.527344 C 167.835938 210.527344 167.785156 210.535156 167.734375 210.550781 C 165.386719 211.257812 163.460938 211.609375 161.960938 211.609375 C 161.132812 211.609375 160.433594 211.503906 159.863281 211.289062 C 159.824219 211.273438 159.78125 211.261719 159.738281 211.257812 C 159.238281 211.027344 157.527344 209.386719 154.605469 206.339844 C 154.523438 206.257812 154.421875 206.199219 154.308594 206.179688 C 152.628906 205.882812 151.152344 205.042969 149.886719 203.65625 C 149.855469 203.621094 149.824219 203.59375 149.785156 203.570312 C 149.5 203.332031 149.003906 202.148438 148.289062 200.019531 C 148.269531 199.953125 148.242188 199.886719 148.207031 199.816406 C 147.976562 199.390625 147.121094 198.726562 145.640625 197.820312 L 145.636719 197.820312 C 144.75 196.238281 143.707031 194.878906 142.507812 193.734375 C 142.140625 193.222656 141.804688 191.75 141.503906 189.316406 L 141.5 189.316406 L 143.441406 179.234375 C 143.460938 179.140625 143.453125 179.042969 143.421875 178.949219 L 142.347656 175.886719 C 142.6875 173.644531 142.425781 171.800781 141.5625 170.359375 C 141.582031 170.046875 141.699219 169.632812 141.914062 169.105469 C 143.878906 165.058594 145.308594 162.445312 146.207031 161.261719 C 148.34375 159.566406 150.144531 157.578125 151.605469 155.300781 L 151.601562 155.300781 C 154.546875 153.214844 156.167969 151.90625 156.464844 151.375 C 156.46875 151.367188 156.472656 151.363281 156.476562 151.355469 C 156.523438 151.265625 156.554688 151.179688 156.574219 151.101562 C 157.210938 150.242188 157.90625 147.742188 158.65625 143.601562 L 158.652344 143.601562 C 159.683594 142.636719 160.613281 141.496094 161.4375 140.183594 L 161.433594 140.183594 C 163.300781 139.371094 164.367188 138.691406 164.632812 138.148438 C 164.640625 138.132812 164.648438 138.113281 164.65625 138.097656 L 164.652344 138.097656 C 165.3125 137.375 165.992188 135.558594 166.691406 132.652344 L 166.695312 132.652344 C 167.011719 132.78125 167.570312 133.277344 168.367188 134.148438 C 168.472656 134.261719 168.617188 134.328125 168.769531 134.328125 C 168.78125 134.328125 168.796875 134.324219 168.8125 134.324219 C 169.039062 134.304688 169.285156 134.296875 169.546875 134.296875 C 171.074219 134.296875 173.179688 134.605469 175.871094 135.21875 L 175.867188 135.21875 C 175.945312 135.25 176.027344 135.261719 176.109375 135.261719 C 176.199219 135.261719 176.292969 135.246094 176.394531 135.214844 C 176.839844 135.066406 177.574219 134.394531 178.59375 133.195312 C 183.636719 131.710938 186.671875 130.371094 187.691406 129.175781 L 187.695312 129.175781 L 191.882812 129.894531 C 191.914062 129.902344 191.941406 129.902344 191.972656 129.902344 C 191.980469 129.902344 191.988281 129.902344 191.996094 129.902344 C 197.222656 129.679688 200.296875 129.304688 201.21875 128.777344 C 201.3125 128.726562 201.390625 128.667969 201.457031 128.605469 C 201.785156 128.308594 201.84375 127.980469 201.636719 127.613281 C 201.535156 127.4375 201.351562 127.339844 201.164062 127.339844 C 201.074219 127.339844 200.980469 127.363281 200.894531 127.410156 C 200.726562 127.507812 200.628906 127.683594 200.625 127.867188 L 200.621094 127.867188 C 199.773438 128.289062 196.902344 128.605469 192.007812 128.8125 L 187.542969 128.046875 C 187.511719 128.039062 187.480469 128.039062 187.449219 128.039062 C 187.253906 128.039062 187.074219 128.144531 186.976562 128.316406 C 186.40625 129.347656 183.460938 130.640625 178.136719 132.199219 C 178.035156 132.230469 177.941406 132.289062 177.875 132.371094 C 176.984375 133.421875 176.398438 134.019531 176.105469 134.160156 C 173.34375 133.527344 171.152344 133.210938 169.535156 133.210938 C 169.347656 133.210938 169.164062 133.214844 168.988281 133.222656 C 167.972656 132.140625 167.191406 131.578125 166.652344 131.535156 C 166.625 131.535156 166.59375 131.53125 166.566406 131.53125 C 166.335938 131.53125 166.132812 131.609375 165.964844 131.765625 C 165.886719 131.835938 165.824219 131.921875 165.769531 132.019531 C 165.726562 132.097656 165.691406 132.1875 165.664062 132.285156 L 165.660156 132.300781 C 164.964844 135.207031 164.347656 136.90625 163.8125 137.402344 C 163.734375 137.476562 163.675781 137.574219 163.652344 137.683594 C 163.476562 138 162.542969 138.523438 160.851562 139.253906 C 160.75 139.296875 160.664062 139.371094 160.605469 139.46875 C 159.777344 140.8125 158.835938 141.964844 157.789062 142.921875 C 157.699219 143.003906 157.640625 143.109375 157.621094 143.226562 C 156.820312 147.683594 156.175781 150.097656 155.691406 150.472656 C 155.53125 150.578125 155.4375 150.757812 155.445312 150.949219 L 155.441406 150.949219 C 155.054688 151.425781 153.535156 152.601562 150.890625 154.472656 C 150.835938 154.515625 150.785156 154.566406 150.746094 154.625 C 149.332031 156.855469 147.578125 158.796875 145.484375 160.445312 C 145.449219 160.472656 145.417969 160.507812 145.390625 160.542969 C 144.453125 161.757812 142.96875 164.453125 140.9375 168.632812 L 140.925781 168.660156 C 140.609375 169.421875 140.460938 170.042969 140.476562 170.523438 C 140.476562 170.621094 140.507812 170.714844 140.558594 170.800781 C 141.363281 172.058594 141.597656 173.742188 141.253906 175.847656 C 141.242188 175.9375 141.25 176.03125 141.277344 176.117188 L 142.347656 179.171875 L 140.421875 189.191406 C 140.410156 189.246094 140.40625 189.304688 140.414062 189.359375 C 140.746094 192.085938 141.164062 193.773438 141.667969 194.425781 C 141.6875 194.449219 141.703125 194.46875 141.726562 194.488281 C 142.890625 195.589844 143.898438 196.917969 144.757812 198.472656 C 144.804688 198.554688 144.871094 198.625 144.953125 198.671875 C 146.339844 199.511719 147.105469 200.066406 147.25 200.332031 C 148.035156 202.675781 148.644531 204.03125 149.085938 204.402344 C 149.101562 204.414062 149.117188 204.425781 149.132812 204.4375 C 150.511719 205.929688 152.113281 206.855469 153.945312 207.21875 L 153.941406 207.21875 C 156.957031 210.359375 158.765625 212.046875 159.371094 212.28125 C 159.433594 212.308594 159.496094 212.324219 159.558594 212.332031 C 160.222656 212.570312 161.023438 212.691406 161.953125 212.691406 C 163.550781 212.691406 165.539062 212.339844 167.914062 211.632812 C 169.894531 212.035156 171.652344 212.234375 173.1875 212.234375 C 174.363281 212.234375 175.40625 212.117188 176.320312 211.882812 C 181.535156 210.695312 184.574219 209.132812 185.4375 207.1875 C 185.574219 207.152344 185.734375 207.136719 185.925781 207.136719 C 186.238281 207.136719 186.621094 207.183594 187.078125 207.277344 C 189.105469 207.730469 190.285156 208.054688 190.625 208.25 C 190.675781 208.328125 190.753906 208.394531 190.84375 208.4375 L 190.839844 208.4375 C 191.117188 208.691406 191.625 209.800781 192.363281 211.765625 C 192.378906 211.800781 192.394531 211.835938 192.414062 211.867188 C 192.707031 212.332031 193.058594 212.667969 193.46875 212.871094 L 193.464844 212.871094 C 193.539062 212.945312 193.628906 213.007812 193.742188 213.054688 C 193.96875 213.15625 194.386719 213.207031 195.003906 213.207031 C 195.953125 213.207031 197.367188 213.085938 199.246094 212.847656 L 199.25 212.847656 C 199.699219 212.902344 200.070312 213.058594 200.363281 213.3125 C 200.394531 213.339844 200.429688 213.363281 200.464844 213.382812 C 201.667969 214.015625 202.074219 216.140625 201.683594 219.75 C 201.667969 219.914062 201.722656 220.066406 201.824219 220.175781 L 201.820312 220.175781 C 201.785156 221.664062 201.53125 223.578125 201.0625 225.914062 L 201.054688 225.980469 C 201.015625 226.511719 201.078125 226.988281 201.246094 227.410156 C 202.449219 230.402344 204.609375 232.625 207.730469 234.078125 L 207.726562 234.078125 L 207.871094 234.855469 C 207.886719 234.945312 207.925781 235.027344 207.980469 235.101562 L 208.554688 235.808594 C 208.628906 236.613281 208.71875 237.140625 208.828125 237.382812 C 208.863281 237.460938 208.90625 237.53125 208.953125 237.585938 C 209.910156 238.921875 210.417969 239.753906 210.472656 240.085938 C 210.488281 240.171875 210.519531 240.25 210.570312 240.316406 L 210.566406 240.316406 C 210.625 240.664062 210.546875 241.667969 210.34375 243.335938 C 210.339844 243.363281 210.339844 243.394531 210.339844 243.421875 C 210.355469 243.960938 210.429688 244.546875 210.554688 245.175781 L 210.5625 245.195312 C 210.664062 245.617188 210.804688 245.96875 210.984375 246.253906 C 210.996094 246.273438 211.011719 246.292969 211.027344 246.3125 C 211.757812 247.1875 212.183594 247.78125 212.308594 248.085938 L 212.328125 248.121094 C 212.480469 248.425781 212.609375 248.894531 212.714844 249.527344 L 212.710938 249.527344 C 212.773438 249.972656 212.757812 250.292969 212.671875 250.488281 L 212.667969 250.488281 L 210.394531 253.921875 L 210.363281 253.976562 C 209.925781 254.828125 209.507812 256.015625 209.105469 257.535156 C 208.863281 258.34375 208.660156 259.328125 208.503906 260.496094 L 208.5 260.515625 C 208.234375 263.207031 208.148438 264.777344 208.253906 265.21875 C 208.261719 265.253906 208.273438 265.289062 208.285156 265.320312 C 208.324219 265.433594 208.398438 265.527344 208.492188 265.589844 L 208.707031 266.679688 L 208.710938 266.707031 C 208.796875 267.066406 208.886719 267.339844 208.976562 267.523438 C 209.085938 267.765625 209.300781 268.121094 209.621094 268.585938 C 210.148438 269.351562 210.652344 270.015625 211.125 270.570312 C 211.234375 270.730469 211.328125 270.878906 211.398438 271.019531 L 211.417969 271.050781 C 211.59375 271.347656 211.914062 272.1875 212.367188 273.578125 L 212.363281 273.578125 C 212.511719 274.742188 213.113281 276.261719 214.171875 278.132812 L 214.167969 278.132812 L 214.574219 281.515625 C 214.574219 281.523438 214.574219 281.53125 214.574219 281.535156 C 214.59375 281.921875 214.910156 282.710938 215.523438 283.90625 L 215.519531 283.90625 C 215.65625 286.570312 215.914062 288.179688 216.289062 288.738281 L 216.285156 288.738281 C 217.355469 291.074219 218.554688 292.964844 219.875 294.410156 C 220.097656 294.675781 220.421875 295.746094 220.84375 297.617188 C 220.863281 297.707031 220.902344 297.785156 220.960938 297.855469 C 222.457031 299.597656 223.453125 300.972656 223.949219 301.976562 C 223.988281 302.089844 223.988281 302.199219 223.953125 302.3125 C 223.015625 303.511719 222.507812 304.324219 222.429688 304.753906 C 222.386719 304.988281 222.421875 305.179688 222.535156 305.335938 C 223.234375 307.566406 224.050781 308.78125 224.988281 308.972656 C 226.582031 309.800781 227.601562 310.222656 228.039062 310.242188 C 228.054688 310.246094 228.070312 310.246094 228.089844 310.246094 C 228.261719 310.246094 228.402344 310.203125 228.519531 310.117188 L 228.515625 310.117188 C 230.21875 309.304688 231.9375 308.738281 233.667969 308.417969 C 233.707031 308.410156 233.746094 308.398438 233.78125 308.382812 C 233.863281 308.355469 234.003906 308.339844 234.195312 308.339844 C 234.902344 308.339844 236.332031 308.53125 238.484375 308.917969 C 238.515625 308.925781 238.550781 308.925781 238.582031 308.925781 C 238.585938 308.925781 238.589844 308.925781 238.59375 308.925781 C 241.40625 308.859375 243.582031 308.433594 245.125 307.644531 C 245.726562 307.367188 246.285156 307 246.804688 306.539062 C 246.835938 306.511719 246.863281 306.480469 246.886719 306.449219 C 247.890625 305.050781 249.359375 303.667969 251.292969 302.296875 C 251.351562 302.257812 251.398438 302.207031 251.433594 302.148438 C 253.105469 299.5625 254.242188 297.703125 254.835938 296.570312 C 254.859375 296.535156 254.882812 296.496094 254.898438 296.457031 C 254.984375 296.285156 255.0625 296.128906 255.121094 295.996094 C 255.171875 295.886719 255.183594 295.773438 255.164062 295.664062 L 255.160156 295.664062 C 255.164062 295.660156 255.171875 295.652344 255.175781 295.644531 L 255.171875 295.644531 C 256.664062 295.105469 257.582031 294.328125 257.921875 293.316406 L 257.917969 293.316406 C 257.9375 293.289062 257.957031 293.257812 257.972656 293.226562 C 258.234375 292.742188 258.710938 290.429688 259.402344 286.289062 C 259.527344 285.753906 259.761719 285.191406 260.109375 284.589844 L 260.128906 284.558594 C 260.53125 283.738281 261.542969 283.132812 263.164062 282.730469 C 263.246094 282.710938 263.320312 282.671875 263.386719 282.621094 C 263.785156 282.28125 264.109375 281.773438 264.355469 281.09375 C 264.671875 280.214844 264.792969 279.199219 264.71875 278.039062 C 264.714844 278.011719 264.710938 277.984375 264.703125 277.953125 C 264.046875 275.097656 263.71875 273.441406 263.71875 272.984375 L 263.714844 272.984375 C 263.742188 272.917969 263.753906 272.84375 263.75 272.769531 C 263.738281 272.375 264.238281 271.277344 265.257812 269.46875 C 266.273438 267.777344 267.554688 266.375 269.09375 265.253906 C 269.132812 265.222656 269.171875 265.1875 269.203125 265.148438 C 269.890625 264.261719 271.113281 263.761719 272.878906 263.648438 C 272.929688 263.644531 272.980469 263.636719 273.027344 263.621094 C 273.085938 263.597656 273.144531 263.570312 273.203125 263.53125 C 273.625 263.269531 274.339844 262.261719 275.347656 260.503906 L 275.34375 260.503906 L 277.070312 259.332031 C 277.238281 259.214844 277.328125 259.011719 277.300781 258.808594 L 276.445312 252.53125 L 276.523438 247.007812 C 276.527344 246.96875 276.523438 246.933594 276.515625 246.898438 C 276.4375 246.488281 276.304688 246.113281 276.113281 245.765625 L 276.085938 245.71875 C 274.960938 244.082031 274.375 243.097656 274.332031 242.773438 C 274.324219 242.691406 274.296875 242.609375 274.253906 242.539062 L 274.25 242.539062 C 274.085938 242.210938 274.148438 240.996094 274.445312 238.886719 C 274.460938 238.777344 274.441406 238.660156 274.386719 238.558594 C 273.617188 237.074219 273.214844 236.15625 273.1875 235.804688 C 273.234375 235.691406 273.246094 235.566406 273.214844 235.445312 L 273.210938 235.445312 C 273.203125 234.988281 273.875 233.316406 275.226562 230.425781 C 275.246094 230.386719 275.257812 230.347656 275.265625 230.308594 C 275.515625 230.003906 276.363281 229.257812 277.8125 228.070312 L 277.808594 228.070312 C 277.945312 228.046875 278.070312 227.972656 278.15625 227.851562 C 278.195312 227.800781 278.234375 227.746094 278.273438 227.695312 L 278.269531 227.695312 C 278.378906 227.605469 278.488281 227.515625 278.605469 227.425781 C 278.730469 227.320312 278.796875 227.171875 278.804688 227.023438 L 278.800781 227.023438 C 280.070312 225.480469 282.164062 223.328125 285.085938 220.578125 L 285.082031 220.578125 C 288.671875 219.574219 291.222656 218.015625 292.730469 215.890625 C 292.746094 215.871094 292.757812 215.847656 292.769531 215.824219 C 296.585938 208.414062 299.636719 203.0625 301.917969 199.769531 L 301.945312 199.726562 C 302.5625 198.617188 302.726562 197.1875 302.425781 195.441406 C 302.300781 194.328125 301.773438 193.769531 300.851562 193.769531 C 300.757812 193.769531 300.65625 193.777344 300.554688 193.789062 C 300.503906 193.792969 300.449219 193.800781 300.394531 193.808594 C 300.332031 193.820312 300.273438 193.84375 300.214844 193.875 C 297.601562 195.402344 292.589844 196.535156 285.1875 197.28125 L 285.183594 197.28125 C 284.554688 197.195312 283.339844 195.214844 281.535156 191.339844 C 281.453125 191.160156 281.28125 191.039062 281.085938 191.027344 C 280.242188 190.964844 277.921875 189.078125 274.125 185.371094 C 273.925781 185.160156 273.769531 184.769531 273.65625 184.199219 L 273.652344 184.199219 C 273.765625 181.878906 273.691406 180.472656 273.433594 179.984375 C 273.410156 179.945312 273.386719 179.902344 273.359375 179.867188 L 273.355469 179.867188 C 273.054688 179.074219 271.597656 178.058594 268.980469 176.820312 C 268.976562 176.808594 268.972656 176.792969 268.96875 176.78125 C 268.816406 176.121094 268.6875 174.445312 268.578125 171.746094 L 268.574219 171.699219 C 268.519531 171.261719 268.410156 170.855469 268.253906 170.472656 L 268.25 170.472656 C 268.246094 170.441406 268.238281 170.410156 268.230469 170.378906 C 268.085938 169.839844 267.144531 168.675781 265.398438 166.882812 C 265.246094 165.226562 265.085938 164.222656 264.921875 163.878906 C 264.878906 163.792969 264.828125 163.71875 264.769531 163.660156 L 264.765625 163.660156 C 264.171875 162.585938 263.285156 161.351562 262.097656 159.953125 L 260.816406 155.527344 C 260.800781 155.472656 260.773438 155.417969 260.738281 155.367188 L 258.042969 151.503906 L 258.039062 151.503906 C 257.808594 150.445312 257.976562 149.703125 258.550781 149.277344 C 258.699219 149.71875 258.875 150.546875 259.082031 151.769531 C 259.089844 151.816406 259.101562 151.863281 259.121094 151.90625 C 259.414062 152.550781 259.847656 153.171875 260.414062 153.765625 C 261.171875 154.601562 261.855469 155.023438 262.46875 155.023438 C 262.820312 155.023438 263.148438 154.882812 263.453125 154.609375 C 263.710938 154.378906 263.929688 154.046875 264.109375 153.613281 C 264.859375 151.914062 265.15625 150.792969 265.007812 150.238281 C 264.976562 150.128906 264.933594 150.035156 264.875 149.949219 C 263.34375 147.5625 262.429688 145.949219 262.128906 145.105469 L 262.125 145.105469 C 262.171875 144.933594 262.128906 144.75 262.011719 144.617188 C 261.957031 144.371094 261.734375 144.191406 261.480469 144.191406 C 261.464844 144.191406 261.445312 144.195312 261.429688 144.195312 C 261.148438 144.222656 260.933594 144.460938 260.9375 144.742188 C 260.488281 144.882812 259.5625 145.003906 258.164062 145.101562 C 257.277344 145.089844 256.566406 145.0625 256.03125 145.011719 L 252.125 144.492188 L 252.078125 144.488281 C 252.027344 144.484375 251.976562 144.484375 251.925781 144.484375 C 251.71875 144.484375 251.542969 144.503906 251.40625 144.550781 C 251.386719 144.554688 251.371094 144.5625 251.355469 144.566406 L 251.3125 144.585938 L 250.480469 144.984375 C 250.363281 145.011719 250.207031 145.027344 250.003906 145.03125 C 246.820312 144.664062 244.144531 144.480469 241.972656 144.480469 C 241.324219 144.480469 240.71875 144.496094 240.160156 144.53125 L 240.152344 144.53125 C 240.144531 144.53125 240.136719 144.53125 240.125 144.53125 C 239.816406 144.53125 239.371094 144.179688 238.785156 143.480469 C 238.714844 143.394531 238.617188 143.332031 238.511719 143.304688 C 237.582031 143.054688 235.941406 142.265625 233.59375 140.941406 L 233.546875 140.917969 C 232.582031 140.488281 231.605469 140.269531 230.617188 140.269531 C 230.402344 140.269531 230.183594 140.28125 229.96875 140.300781 L 229.949219 140.304688 C 228.695312 140.46875 227.859375 140.859375 227.445312 141.480469 C 227.398438 141.554688 227.367188 141.636719 227.359375 141.726562 C 227.078125 144.433594 226.84375 145.960938 226.664062 146.308594 L 226.660156 146.308594 C 226.640625 146.332031 226.621094 146.359375 226.605469 146.390625 C 226.195312 147.125 225.789062 147.492188 225.386719 147.492188 C 225.339844 147.492188 225.296875 147.488281 225.25 147.480469 C 225.214844 147.472656 225.179688 147.46875 225.140625 147.46875 C 225.136719 147.46875 225.132812 147.46875 225.125 147.46875 C 225.121094 147.46875 225.117188 147.46875 225.109375 147.46875 C 224.648438 147.46875 223.464844 146.96875 221.554688 145.96875 L 221.527344 145.957031 C 221.507812 145.945312 221.484375 145.9375 221.460938 145.929688 C 221.191406 145.832031 220.441406 145.730469 219.207031 145.621094 C 218.941406 145.570312 218.746094 145.503906 218.617188 145.417969 C 218.558594 145.378906 218.496094 145.351562 218.425781 145.339844 C 218.257812 145.113281 218.21875 144.421875 218.308594 143.257812 C 218.3125 143.199219 218.308594 143.136719 218.292969 143.078125 C 218.1875 142.679688 217.9375 142.359375 217.542969 142.125 C 217.472656 142.054688 217.375 142 217.253906 141.960938 C 217.0625 141.894531 216.535156 141.808594 215.675781 141.699219 L 211.949219 140.335938 C 211.90625 140.320312 211.859375 140.308594 211.808594 140.304688 C 211.675781 140.292969 211.539062 140.289062 211.398438 140.289062 C 210.695312 140.289062 209.941406 140.433594 209.132812 140.722656 C 208.972656 140.703125 208.644531 140.640625 208.152344 140.542969 C 207.617188 140.394531 207.214844 139.972656 206.949219 139.269531 C 206.867188 139.054688 206.660156 138.917969 206.441406 138.917969 C 206.378906 138.917969 206.3125 138.929688 206.25 138.953125 C 206.195312 138.976562 206.140625 139.007812 206.097656 139.042969 C 204.996094 138.25 204.359375 137.773438 204.195312 137.621094 L 204.191406 137.621094 C 204.171875 137.589844 204.148438 137.566406 204.121094 137.542969 C 203.976562 137.410156 203.882812 137.292969 203.84375 137.199219 L 203.839844 137.199219 C 203.851562 137.171875 203.875 137.132812 203.914062 137.085938 L 203.910156 137.085938 C 204.773438 136.484375 205.335938 136.007812 205.609375 135.652344 L 205.605469 135.652344 C 205.859375 135.359375 206.027344 134.972656 206.113281 134.492188 L 206.117188 134.472656 C 206.246094 133.507812 206.238281 132.777344 206.089844 132.28125 L 206.089844 132.269531 C 206.011719 132.03125 205.921875 131.84375 205.824219 131.707031 C 205.820312 131.703125 205.816406 131.699219 205.8125 131.695312 C 205.800781 131.675781 205.785156 131.65625 205.765625 131.640625 L 205.121094 130.996094 L 205.117188 130.996094 C 205.097656 130.964844 205.082031 130.9375 205.070312 130.917969 C 205.066406 130.898438 205.066406 130.878906 205.0625 130.859375 L 205.058594 130.859375 C 205.058594 130.824219 205.0625 130.761719 205.082031 130.675781 L 205.078125 130.675781 L 205.476562 129.632812 C 205.488281 129.601562 205.496094 129.570312 205.5 129.542969 C 205.503906 129.519531 205.507812 129.5 205.511719 129.480469 C 205.539062 129.273438 205.507812 129.019531 205.421875 128.71875 C 205.351562 128.488281 205.144531 128.335938 204.917969 128.328125 C 204.992188 128.113281 204.925781 127.863281 204.730469 127.707031 C 204.363281 127.421875 203.992188 127.191406 203.613281 127.015625 L 203.585938 127.003906 C 203.4375 126.945312 203.316406 126.90625 203.222656 126.882812 L 203.21875 126.882812 C 203.195312 126.878906 203.171875 126.871094 203.144531 126.867188 C 203.066406 126.851562 202.898438 126.832031 202.640625 126.808594 C 202.625 126.808594 202.605469 126.804688 202.589844 126.804688 Z M 202.589844 126.804688 " fill-opacity="1" fill-rule="nonzero"/></g></svg>