<svg xmlns="http://www.w3.org/2000/svg" xmlns:xlink="http://www.w3.org/1999/xlink" width="215" zoomAndPan="magnify" viewBox="0 0 161.25 135.749996" height="181" preserveAspectRatio="xMidYMid meet" version="1.0"><defs><clipPath id="b9e74926ba"><path d="M 2 30 L 29 30 L 29 64 L 2 64 Z M 2 30 " clip-rule="nonzero"/></clipPath><clipPath id="e4025b3a6f"><path d="M 7.652344 26.835938 L 32.390625 32.523438 L 24.691406 65.988281 L -0.0429688 60.300781 Z M 7.652344 26.835938 " clip-rule="nonzero"/></clipPath><clipPath id="dfd9f00625"><path d="M 32.402344 32.527344 L 7.664062 26.835938 L -0.03125 60.304688 L 24.703125 65.992188 Z M 32.402344 32.527344 " clip-rule="nonzero"/></clipPath><clipPath id="8f431baefc"><path d="M 32.402344 32.527344 L 7.664062 26.835938 L -0.03125 60.304688 L 24.703125 65.992188 Z M 32.402344 32.527344 " clip-rule="nonzero"/></clipPath></defs><path fill="#110f0f" d="M 123.386719 97.945312 C 123.992188 92.316406 123.367188 90.664062 130.027344 90.574219 C 141.046875 90.421875 140.6875 93.863281 136.398438 102.976562 C 144.902344 95.273438 146.652344 95.660156 152.101562 98.347656 C 158.816406 101.65625 160.175781 105.964844 151.34375 110.3125 C 142.3125 114.761719 136.941406 113.28125 125.777344 120.082031 C 123.171875 121.667969 118.496094 116.28125 120.445312 111.230469 C 122.070312 107.027344 122.851562 102.902344 123.386719 97.945312 " fill-opacity="1" fill-rule="nonzero"/><path fill="#110f0f" d="M 122.96875 109.941406 C 117.816406 109.050781 110.082031 108.800781 107.46875 108.738281 C 106.898438 108.726562 106.574219 108.71875 106.574219 108.71875 C 106.574219 108.71875 106.585938 108.582031 106.605469 108.308594 C 106.609375 108.300781 106.609375 108.292969 106.609375 108.285156 C 106.929688 104.152344 108.773438 71.175781 90.273438 30.929688 C 83.445312 16.082031 74.605469 0.230469 57.699219 2.160156 C 38.277344 4.378906 28.328125 19.960938 35.65625 40.992188 C 35.660156 41.007812 35.664062 41.019531 35.667969 41.035156 C 35.722656 41.242188 35.640625 41.421875 35.492188 41.601562 C 34.886719 42.316406 33.175781 43.050781 34.65625 45.769531 C 34.65625 45.769531 34.65625 45.769531 34.65625 45.773438 C 34.792969 46.03125 34.710938 46.230469 34.527344 46.445312 C 33.988281 47.089844 32.585938 47.867188 33.835938 50.847656 C 33.851562 50.890625 33.871094 50.929688 33.890625 50.972656 C 33.949219 51.109375 33.953125 51.304688 33.917969 51.542969 C 33.71875 52.808594 32.355469 55.367188 31.515625 57.328125 C 25.976562 70.226562 23.695312 84.992188 25.203125 98.792969 C 26.710938 112.632812 36.183594 126.621094 48.09375 130.332031 C 62.472656 134.8125 83.96875 135.199219 99.644531 132.511719 C 113.304688 130.171875 122.535156 122.253906 128.160156 118.703125 C 130.917969 116.964844 128.8125 110.949219 122.96875 109.941406 " fill-opacity="1" fill-rule="nonzero"/><path fill="#110f0f" d="M 50.21875 30.789062 C 50.871094 24.757812 58.308594 20.828125 63.5 24.363281 C 67.691406 27.21875 70.3125 34.871094 61.730469 38.351562 C 53.921875 41.515625 49.527344 37.144531 50.21875 30.789062 " fill-opacity="1" fill-rule="nonzero"/><path fill="#110f0f" d="M 54.28125 26.636719 C 55.101562 25.585938 57.71875 24.65625 59.183594 25.109375 C 61.367188 25.785156 59.015625 28.410156 57.792969 28.929688 C 56.410156 29.515625 53.074219 28.179688 54.28125 26.636719 " fill-opacity="1" fill-rule="nonzero"/><path fill="#110f0f" d="M 62 28.894531 C 62.46875 28.554688 62.988281 29.269531 62.523438 29.613281 C 62.050781 29.953125 61.53125 29.238281 62 28.894531 " fill-opacity="1" fill-rule="nonzero"/><path fill="#ffffff" d="M 81.976562 99.777344 C 86 98.722656 88.648438 95.050781 90.90625 91.796875 C 91.6875 90.503906 92.03125 90.144531 92.25 90.101562 C 93.675781 89.539062 95.070312 88.792969 96.179688 87.722656 C 96.988281 86.90625 97.574219 85.894531 98.0625 84.863281 C 98.457031 83.996094 98.828125 83.117188 99.113281 82.207031 C 99.191406 81.882812 99.371094 81.558594 99.308594 81.222656 C 99.289062 80.859375 98.984375 80.542969 98.640625 80.449219 C 97.707031 80.253906 97.488281 81.042969 97.296875 81.761719 C 96.976562 82.671875 96.886719 82.925781 96.6875 83.371094 C 95.511719 85.941406 94.925781 86.671875 92.632812 87.867188 C 91.863281 88.273438 91.953125 88.09375 91.023438 88.605469 C 90.277344 89.109375 89.859375 89.933594 89.382812 90.667969 C 87.253906 94.039062 83.933594 97.929688 80.882812 98.097656 C 80.800781 98.097656 80.554688 98.050781 80.21875 97.878906 C 79.96875 97.710938 80.023438 97.800781 79.703125 97.425781 C 79.257812 96.75 79.386719 96.964844 79.136719 96.140625 C 78.941406 95.234375 78.945312 95.550781 78.957031 94.5625 C 79.03125 93.398438 79.722656 90.265625 80.375 88.335938 C 81.101562 86.179688 81.980469 84.082031 82.8125 81.972656 C 84.472656 77.8125 85.644531 73.464844 86.136719 69.011719 C 86.140625 67.964844 84.605469 67.734375 84.320312 68.765625 C 83.816406 73.132812 82.636719 77.398438 81 81.476562 C 79.628906 84.898438 78.167969 88.316406 77.464844 91.957031 C 77.28125 92.949219 77.066406 93.953125 77.054688 94.96875 C 77.089844 96.03125 77.367188 97.105469 77.886719 98.035156 C 78.6875 99.4375 80.398438 100.269531 81.976562 99.777344 " fill-opacity="1" fill-rule="nonzero"/><path fill="#110f0f" d="M 60.355469 28.039062 C 60.828125 27.699219 61.34375 28.414062 60.878906 28.757812 C 60.40625 29.097656 59.886719 28.382812 60.355469 28.039062 " fill-opacity="1" fill-rule="nonzero"/><path fill="#110f0f" d="M 98.699219 59.089844 C 98.253906 55.867188 95.363281 56.542969 95.882812 59.210938 C 96.558594 62.675781 99.222656 62.894531 98.699219 59.089844 " fill-opacity="1" fill-rule="nonzero"/><path fill="#110f0f" d="M 92.03125 41.292969 C 92.667969 39.933594 90.671875 35.953125 89.132812 37.902344 C 88.121094 39.1875 90.695312 44.160156 92.03125 41.292969 " fill-opacity="1" fill-rule="nonzero"/><path fill="#110f0f" d="M 92.679688 57.640625 C 93.398438 55.972656 91.25 54.65625 90.679688 56.554688 C 90.28125 57.875 92.035156 59.148438 92.679688 57.640625 " fill-opacity="1" fill-rule="nonzero"/><path fill="#110f0f" d="M 88.769531 45.441406 C 87.863281 43.253906 86.175781 44.433594 86.738281 45.910156 C 87.351562 47.527344 89.441406 47.0625 88.769531 45.441406 " fill-opacity="1" fill-rule="nonzero"/><path fill="#110f0f" d="M 85.46875 31.832031 C 85.257812 32.734375 85.390625 33.425781 85.605469 33.984375 C 86.199219 35.527344 87.617188 35.191406 87.765625 34.265625 C 87.875 33.566406 87.667969 32.488281 87.539062 32.085938 C 87.042969 30.546875 85.71875 30.753906 85.46875 31.832031 " fill-opacity="1" fill-rule="nonzero"/><path fill="#110f0f" d="M 91.507812 47.058594 C 90.300781 48.4375 91.089844 53.292969 93.746094 51.863281 C 96.109375 50.589844 93.570312 44.714844 91.507812 47.058594 " fill-opacity="1" fill-rule="nonzero"/><path fill="#ffffff" d="M 30.496094 102.351562 C 29.988281 103.765625 32.332031 107.550781 33.691406 105.464844 C 34.582031 104.097656 31.570312 99.375 30.496094 102.351562 " fill-opacity="1" fill-rule="nonzero"/><path fill="#ffffff" d="M 42.382812 114.625 C 42.101562 115.347656 42.851562 116.738281 43.582031 117.492188 C 44.671875 118.625 46.621094 119.847656 47.265625 117.8125 C 47.84375 115.972656 43.597656 111.535156 42.382812 114.625 " fill-opacity="1" fill-rule="nonzero"/><path fill="#ffffff" d="M 39.042969 108.558594 C 38.839844 110.679688 41.550781 110.863281 41.183594 108.875 C 40.949219 107.625 39.1875 107.078125 39.042969 108.558594 " fill-opacity="1" fill-rule="nonzero"/><path fill="#ffffff" d="M 32.699219 111.988281 C 32.757812 113.878906 34.339844 116.476562 36.339844 116.472656 C 39.632812 116.46875 36.617188 112.710938 35.617188 111.3125 C 34.847656 110.226562 32.652344 110.492188 32.699219 111.988281 " fill-opacity="1" fill-rule="nonzero"/><path fill="#ffffff" d="M 39.964844 122.71875 C 40.164062 124.132812 42.085938 124.457031 43.382812 124.734375 C 44.679688 125.007812 45.476562 123.6875 44.449219 122.84375 C 43.207031 121.824219 39.5625 119.890625 39.964844 122.71875 " fill-opacity="1" fill-rule="nonzero"/><path fill="#ffffff" d="M 49.859375 122.398438 C 50.621094 122.9375 51.308594 123.074219 51.910156 123.085938 C 53.5625 123.113281 53.785156 121.675781 52.980469 121.191406 C 52.375 120.824219 51.300781 120.609375 50.878906 120.578125 C 49.265625 120.460938 48.957031 121.765625 49.859375 122.398438 " fill-opacity="1" fill-rule="nonzero"/><path fill="#110f0f" d="M 52.675781 33.367188 C 52.835938 33.230469 53.027344 33.332031 53.171875 33.445312 C 53.21875 33.476562 53.265625 33.503906 53.316406 33.53125 C 53.6875 33.722656 53.984375 33.835938 54.367188 33.863281 C 54.855469 33.902344 55.515625 33.824219 56.074219 33.476562 C 56.683594 33.085938 57.371094 32.289062 57.515625 31.484375 C 57.574219 31.113281 57.597656 30.863281 57.558594 30.546875 C 57.394531 29.34375 57.039062 28.179688 56.722656 27.011719 C 56.769531 27.167969 56.664062 26.8125 56.632812 26.71875 C 56.570312 26.46875 56.4375 26.230469 56.398438 25.976562 C 56.371094 25.640625 56.886719 25.527344 57.007812 25.84375 C 57.367188 26.917969 57.621094 28.03125 57.882812 29.132812 C 58.085938 30.074219 58.3125 31.0625 57.976562 32 C 57.316406 33.777344 55.445312 34.863281 53.59375 34.261719 C 53.238281 34.113281 52.214844 33.867188 52.675781 33.367188 " fill-opacity="1" fill-rule="nonzero"/><path fill="#110f0f" d="M 64.113281 30.058594 C 63.902344 30.03125 63.796875 30.222656 63.738281 30.390625 C 63.714844 30.441406 63.6875 30.492188 63.660156 30.542969 C 63.453125 30.90625 63.261719 31.160156 62.953125 31.386719 C 62.5625 31.6875 61.964844 31.976562 61.308594 31.988281 C 60.585938 31.988281 59.578125 31.683594 59.019531 31.082031 C 58.769531 30.804688 58.613281 30.605469 58.480469 30.316406 C 57.96875 29.21875 57.640625 28.046875 57.277344 26.890625 C 57.320312 27.046875 57.21875 26.691406 57.191406 26.597656 C 57.113281 26.347656 57.09375 26.078125 56.992188 25.84375 C 56.832031 25.546875 56.339844 25.726562 56.40625 26.058594 C 56.683594 27.160156 57.070312 28.230469 57.445312 29.304688 C 57.78125 30.203125 58.125 31.160156 58.910156 31.765625 C 60.425781 32.90625 62.585938 32.816406 63.820312 31.308594 C 64.039062 30.992188 64.769531 30.234375 64.113281 30.058594 " fill-opacity="1" fill-rule="nonzero"/><path fill="#ffffff" d="M 64.265625 28.75 C 65.871094 29.011719 67.410156 29.609375 68.894531 30.253906 C 69.820312 30.664062 70.695312 31.171875 71.542969 31.71875 C 71.792969 31.917969 72.25 32.066406 72.386719 32.34375 C 72.445312 32.523438 72.304688 32.71875 72.117188 32.722656 C 71.929688 32.71875 71.792969 32.558594 71.636719 32.476562 C 70.210938 31.503906 68.367188 30.566406 66.980469 30.101562 C 66.054688 29.765625 65.117188 29.453125 64.136719 29.316406 C 63.769531 29.230469 63.894531 28.667969 64.265625 28.75 " fill-opacity="1" fill-rule="nonzero"/><path fill="#110f0f" d="M 48.285156 25.027344 C 44.324219 22.816406 41.964844 29.898438 46.484375 30.324219 C 49.496094 30.609375 51.199219 26.65625 48.285156 25.027344 " fill-opacity="1" fill-rule="nonzero"/><path fill="#110f0f" d="M 64.949219 19.066406 C 68.847656 16.757812 71.390625 23.777344 66.886719 24.316406 C 63.882812 24.679688 62.074219 20.773438 64.949219 19.066406 " fill-opacity="1" fill-rule="nonzero"/><path fill="#ffffff" d="M 45.808594 26.394531 C 44.933594 26.410156 44.953125 27.742188 45.828125 27.734375 C 46.703125 27.722656 46.683594 26.390625 45.808594 26.394531 " fill-opacity="1" fill-rule="nonzero"/><path fill="#ffffff" d="M 65.074219 20.152344 C 64.199219 20.167969 64.21875 21.496094 65.089844 21.492188 C 65.964844 21.476562 65.945312 20.144531 65.074219 20.152344 " fill-opacity="1" fill-rule="nonzero"/><path fill="#ffffff" d="M 67.523438 20.507812 C 66.980469 20.640625 67.179688 21.472656 67.726562 21.34375 C 68.269531 21.210938 68.070312 20.378906 67.523438 20.507812 " fill-opacity="1" fill-rule="nonzero"/><path fill="#ffffff" d="M 48.152344 27.054688 C 47.609375 27.1875 47.808594 28.015625 48.355469 27.886719 C 48.898438 27.753906 48.699219 26.925781 48.152344 27.054688 " fill-opacity="1" fill-rule="nonzero"/><path fill="#ffffff" d="M 63.566406 27.605469 C 65.769531 27.457031 68 27.726562 70.117188 28.355469 C 70.707031 28.53125 71.292969 28.707031 71.871094 28.890625 C 71.949219 28.910156 72.019531 28.957031 72.0625 29.023438 C 72.164062 29.183594 72.078125 29.410156 71.898438 29.464844 C 71.71875 29.511719 71.542969 29.390625 71.371094 29.351562 C 69.894531 28.863281 67.808594 28.339844 66.550781 28.238281 C 65.5625 28.175781 64.574219 28.109375 63.589844 28.191406 C 63.207031 28.207031 63.179688 27.621094 63.566406 27.605469 " fill-opacity="1" fill-rule="nonzero"/><path fill="#ffffff" d="M 62.617188 26.675781 C 64.59375 26.058594 66.703125 26.046875 68.738281 26.324219 C 69.417969 26.410156 70.101562 26.503906 70.78125 26.609375 C 70.914062 26.628906 71.066406 26.632812 71.144531 26.761719 C 71.242188 26.910156 71.160156 27.128906 70.988281 27.183594 C 70.816406 27.21875 70.640625 27.144531 70.464844 27.132812 C 68.484375 26.851562 66.863281 26.605469 64.863281 26.785156 C 64.074219 26.886719 63.605469 26.976562 62.785156 27.203125 C 62.441406 27.3125 62.273438 26.785156 62.617188 26.675781 " fill-opacity="1" fill-rule="nonzero"/><path fill="#110f0f" d="M 60.210938 29.800781 C 60.648438 29.453125 61.183594 30.117188 60.75 30.46875 C 60.3125 30.820312 59.777344 30.152344 60.210938 29.800781 " fill-opacity="1" fill-rule="nonzero"/><path fill="#110f0f" d="M 53.554688 31.394531 C 52.976562 31.441406 53.042969 32.324219 53.621094 32.285156 C 54.199219 32.238281 54.132812 31.355469 53.554688 31.394531 " fill-opacity="1" fill-rule="nonzero"/><path fill="#110f0f" d="M 54.257812 29.679688 C 53.675781 29.726562 53.742188 30.609375 54.320312 30.566406 C 54.902344 30.523438 54.832031 29.640625 54.257812 29.679688 " fill-opacity="1" fill-rule="nonzero"/><path fill="#ffffff" d="M 51.730469 32.753906 C 50.675781 33.992188 49.886719 35.4375 49.171875 36.894531 C 48.730469 37.804688 48.390625 38.753906 48.101562 39.722656 C 48.035156 40.035156 47.789062 40.445312 47.859375 40.746094 C 47.929688 40.917969 48.167969 40.976562 48.3125 40.859375 C 48.449219 40.734375 48.449219 40.527344 48.519531 40.363281 C 48.976562 38.699219 49.777344 36.789062 50.535156 35.539062 C 51.027344 34.683594 51.539062 33.839844 52.195312 33.101562 C 52.421875 32.800781 51.960938 32.449219 51.730469 32.753906 " fill-opacity="1" fill-rule="nonzero"/><path fill="#ffffff" d="M 51.523438 31.425781 C 49.746094 32.738281 48.222656 34.386719 47.015625 36.238281 C 46.679688 36.75 46.34375 37.261719 46.019531 37.78125 C 45.972656 37.84375 45.949219 37.925781 45.960938 38.003906 C 45.984375 38.191406 46.199219 38.308594 46.371094 38.234375 C 46.539062 38.152344 46.59375 37.945312 46.703125 37.804688 C 47.511719 36.480469 48.761719 34.726562 49.660156 33.839844 C 50.367188 33.152344 51.082031 32.464844 51.886719 31.890625 C 52.1875 31.65625 51.832031 31.1875 51.523438 31.425781 " fill-opacity="1" fill-rule="nonzero"/><path fill="#ffffff" d="M 51.644531 30.105469 C 49.742188 30.914062 48.125 32.265625 46.75 33.792969 C 46.289062 34.300781 45.828125 34.8125 45.375 35.332031 C 45.289062 35.429688 45.171875 35.535156 45.199219 35.683594 C 45.222656 35.863281 45.421875 35.976562 45.589844 35.90625 C 45.742188 35.820312 45.832031 35.648438 45.957031 35.527344 C 47.289062 34.03125 48.363281 32.796875 50.007812 31.640625 C 50.671875 31.207031 51.089844 30.972656 51.863281 30.617188 C 52.195312 30.476562 51.984375 29.964844 51.644531 30.105469 " fill-opacity="1" fill-rule="nonzero"/><path fill="#110f0f" d="M 55.503906 30.933594 C 54.945312 30.949219 54.96875 31.800781 55.527344 31.792969 C 56.085938 31.773438 56.0625 30.921875 55.503906 30.933594 " fill-opacity="1" fill-rule="nonzero"/><path fill="#110f0f" d="M 56.449219 33.648438 C 56.851562 33.121094 57.402344 32.707031 57.671875 31.503906 C 58 30.027344 58.207031 30.738281 59.128906 31.5625 C 59.503906 31.898438 61.25 32.40625 61.25 32.40625 C 60.949219 35.53125 57.863281 36.28125 56.449219 33.648438 " fill-opacity="1" fill-rule="nonzero"/><path fill="#ffffff" d="M 107.46875 108.738281 C 107.414062 109.414062 107.347656 110.089844 107.265625 110.761719 C 107.199219 111.375 107.144531 111.992188 107.027344 112.597656 C 106.984375 112.753906 107.082031 112.660156 106.863281 112.945312 C 106.445312 113.300781 105.917969 112.871094 106.066406 112.371094 C 106.230469 111.015625 106.574219 108.71875 106.574219 108.71875 C 106.574219 108.71875 106.898438 108.726562 107.46875 108.738281 " fill-opacity="1" fill-rule="nonzero"/><path fill="#110f0f" d="M 35.746094 55.808594 C 31.707031 51.765625 27.828125 50.464844 23.464844 49.625 C 20.433594 49.039062 11.621094 49.054688 8.015625 51.816406 C 4.332031 54.640625 9.949219 56.746094 13.683594 59.03125 C 14.878906 59.761719 15.960938 61.324219 16.484375 62.425781 C 19.007812 67.746094 25.566406 66.199219 31.925781 74.699219 C 31.542969 69.074219 35.949219 55.972656 35.746094 55.808594 " fill-opacity="1" fill-rule="nonzero"/><path fill="#ffffff" d="M 39.0625 42.3125 C 38.996094 42.410156 38.859375 42.453125 38.746094 42.421875 C 38.410156 42.347656 38.074219 42.269531 37.746094 42.1875 C 36.988281 42.011719 36.234375 41.828125 35.492188 41.601562 C 35.640625 41.421875 35.722656 41.242188 35.667969 41.035156 C 36.402344 41.265625 37.148438 41.457031 37.894531 41.640625 C 38.230469 41.710938 38.566406 41.777344 38.90625 41.84375 C 39.105469 41.886719 39.199219 42.15625 39.0625 42.3125 " fill-opacity="1" fill-rule="nonzero"/><path fill="#ffffff" d="M 36.421875 51.96875 C 36.347656 52.078125 36.191406 52.125 36.066406 52.085938 C 35.796875 52.03125 35.527344 51.96875 35.261719 51.898438 C 34.8125 51.789062 34.363281 51.675781 33.917969 51.542969 C 33.953125 51.304688 33.949219 51.109375 33.890625 50.972656 C 33.871094 50.929688 33.851562 50.890625 33.835938 50.847656 C 34.332031 50.996094 34.839844 51.109375 35.339844 51.222656 C 35.710938 51.359375 36.785156 51.324219 36.421875 51.96875 " fill-opacity="1" fill-rule="nonzero"/><path fill="#ffffff" d="M 40.882812 47.296875 C 40.808594 47.371094 40.703125 47.402344 40.601562 47.386719 C 39.96875 47.339844 39.339844 47.257812 38.710938 47.1875 C 37.308594 47.015625 35.890625 46.839844 34.527344 46.445312 C 34.710938 46.230469 34.792969 46.03125 34.65625 45.773438 C 34.976562 45.867188 35.304688 45.949219 35.628906 46.019531 C 36.945312 46.308594 38.730469 46.503906 40.34375 46.660156 C 40.507812 46.691406 40.691406 46.664062 40.835938 46.753906 C 41.027344 46.867188 41.050781 47.152344 40.882812 47.296875 " fill-opacity="1" fill-rule="nonzero"/><g clip-path="url(#b9e74926ba)"><g clip-path="url(#e4025b3a6f)"><g clip-path="url(#dfd9f00625)"><g clip-path="url(#8f431baefc)"><path fill="#000000" d="M 28.101562 51.144531 C 28.101562 51.144531 24.074219 50.132812 23.140625 49.484375 C 21.855469 48.589844 20.984375 44.027344 19.824219 42.363281 C 18.660156 40.695312 15.542969 34.972656 15.738281 33.386719 C 15.894531 32.113281 14.917969 28.5 13 31.988281 C 10.816406 35.964844 12.898438 38.882812 13.28125 41.136719 C 13.664062 43.390625 13.253906 44.160156 11.109375 43.851562 C 8.679688 43.503906 4.261719 41.71875 3.582031 44.671875 C 3.109375 46.730469 4.507812 47 5.011719 47.417969 C 5.011719 47.417969 3.605469 47.09375 3.164062 49.011719 C 2.6875 51.070312 3.910156 51.632812 4.859375 51.988281 C 4.859375 51.988281 3.46875 51.878906 3.058594 53.671875 C 2.613281 55.597656 3.820312 56.222656 4.816406 56.660156 C 4.816406 56.660156 3.453125 56.417969 3.132812 58.089844 C 2.75 60.101562 5.171875 61.390625 8.257812 62.136719 C 11.308594 62.871094 15.273438 63.824219 18.847656 62.785156 C 20.4375 62.324219 25.246094 63.300781 25.246094 63.300781 L 28.101562 51.144531 " fill-opacity="1" fill-rule="nonzero"/></g></g></g></g></svg>